<?xml version="1.0" encoding="UTF-8"?>
<svg width="225" height="250" version="1.1" viewBox="0 0 59.531 66.145" xmlns="http://www.w3.org/2000/svg" xmlns:xlink="http://www.w3.org/1999/xlink"><defs><pattern id="pattern53" patternTransform="scale(.03)" preserveAspectRatio="xMidYMid" xlink:href="#halftones"/><pattern id="halftones" width="10" height="10" fill="#ff66bd" patternUnits="userSpaceOnUse" preserveAspectRatio="xMidYMid"><g id="fullPattern" transform="scale(.1)"><circle cx="50" cy="50" r="25" stop-color="#000000" style="paint-order:markers fill stroke"/><path d="m25 0a25 25 0 0 1-25 25 25 25 0 0 1-25-25 25 25 0 0 1 25-25 25 25 0 0 1 25 25z" style="paint-order:markers fill stroke"/><path d="m125 0a25 25 0 0 1-25 25 25 25 0 0 1-25-25 25 25 0 0 1 25-25 25 25 0 0 1 25 25z" style="paint-order:markers fill stroke"/><path d="m25 100a25 25 0 0 1-25 25 25 25 0 0 1-25-25 25 25 0 0 1 25-25 25 25 0 0 1 25 25z" style="paint-order:markers fill stroke"/><path d="m125 100a25 25 0 0 1-25 25 25 25 0 0 1-25-25 25 25 0 0 1 25-25 25 25 0 0 1 25 25z" style="paint-order:markers fill stroke"/></g></pattern></defs><g transform="translate(-64.99 -65.265)" fill="#9fff9b"><g transform="matrix(2.156 -.64349 .6167 2.0663 27.617 41.73)" fill="#9fff9b"><g transform="rotate(-54.406,32.411,46.699)" fill="#9fff9b"><path d="m31.223 22.313c3.9688 0 3.9688 5.2917 0 5.2917s-3.9586 4.0292-0.42483 5.6766c3.0446 1.4194 3.9708 4.2207 1.2564 7.6943-2.5251 3.2314 0.98756 6.529 6.2793 6.529l-9.4451 3.3693-8.3359-25.212 9.4448-3.369z" fill="#9fff9b"/></g></g></g><g transform="translate(-67.636 -63.941)" fill="#ba66ff"><g transform="matrix(2.156 -.64349 .6167 2.0663 27.617 41.73)" fill="#ba66ff"><g transform="rotate(-54.406,32.411,46.699)" fill="#ba66ff"><path d="m31.223 22.313c3.9688 0 3.9688 5.2917 0 5.2917s-3.9586 4.0292-0.42483 5.6766c3.0446 1.4194 3.9708 4.2207 1.2564 7.6943-2.5251 3.2314 0.98756 6.529 6.2793 6.529l-9.4451 3.3693-8.3359-25.212 9.4448-3.369z" fill="url(#pattern53)"/></g></g></g><g transform="translate(-70.281 -62.619)" fill="#ff66bd"><g transform="matrix(2.156 -.64349 .6167 2.0663 27.617 41.73)" fill="#ff66bd"><g transform="rotate(-54.406,32.411,46.699)" fill="#ff66bd"><path d="m31.223 22.313c3.9688 0 3.9688 5.2917 0 5.2917s-3.9586 4.0292-0.42483 5.6766c3.0446 1.4194 3.9708 4.2207 1.2564 7.6943-2.5251 3.2314 0.98756 6.529 6.2793 6.529l-9.4451 3.3693-8.3359-25.212 9.4448-3.369z" fill="#ba66ff"/></g></g></g><g transform="translate(-72.927 -61.295)" fill="#9ff"><g transform="matrix(2.156 -.64349 .6167 2.0663 27.617 41.73)" fill="#9ff"><g transform="rotate(-54.406,32.411,46.699)" fill="#9ff"><path d="m31.223 22.313c3.9688 0 3.9688 5.2917 0 5.2917s-3.9586 4.0292-0.42483 5.6766c3.0446 1.4194 3.9708 4.2207 1.2564 7.6943-2.5251 3.2314 0.98756 6.529 6.2793 6.529l0.03705 0.11205-9.56 3.4101-8.4103-25.436 9.56-3.4101 0.03705 0.11205z" fill="#9ff"/></g></g></g></svg>
