<?xml version="1.0" encoding="UTF-8"?>
<svg width="225" height="251" version="1.1" viewBox="0 0 59.531 66.41" xmlns="http://www.w3.org/2000/svg"><g transform="translate(-72.927 -61.029)"><g transform="matrix(2.156 -.64349 .6167 2.0663 27.617 41.73)"><g transform="rotate(-54.406 33.773 41.118)" fill="#ff0090"><path d="m31.297 22.038c3.9688 0 3.9688 5.2917 0 5.2917s-3.9688 5.2917 0 5.2917 3.9688 5.2917 0 5.2917c-4.9609-1e-6 -0.84552 4.8086 3.1232 6.1315l-9.5001 3.3888-8.3362-25.212 8.8904-3.1713z" fill="#8dff87"/></g><g transform="rotate(-54.406 33.148 43.067)" fill="#0ff"><path d="m31.531 22.261c3.9688 0 3.9688 5.2917 0 5.2917s-3.9688 5.2917 0 5.2917 3.9688 5.2917 0 5.2917c-4.9181-0.0077 0.42879 6.9603 4.2125 7.2317l-9.5001 3.3888-8.3362-25.212 8.8904-3.1713z" fill="#ff5eb9"/></g><g transform="rotate(-54.406 32.522 45.015)" fill="#900aff"><path d="m31.561 22.437c3.9688 0 3.9688 5.2917 0 5.2917s-3.9688 5.2917 0 5.2917 3.9688 5.2917 0 5.2917c-4.9579-0.01878 0.22494 8.3108 5.5057 8.3781l-9.4295 3.3324-8.3362-25.212 8.8904-3.1713z" fill="#ce93ff"/></g><g transform="rotate(-54.406 32.411 46.699)"><path d="m31.223 22.313c3.9688 0 3.9688 5.2917 0 5.2917s-3.9688 5.2917 0 5.2917 3.9688 5.2917 0 5.2917c-4.9609-1e-6 1.8742 9.2968 7.1659 9.2968l-9.5 3.3887-8.3362-25.212 9.5001-3.3888z" fill="#81ffff"/></g></g></g></svg>
