<?xml version="1.0" encoding="UTF-8"?>
<svg width="225" height="250" version="1.1" viewBox="0 0 59.531 66.145" xmlns="http://www.w3.org/2000/svg"><g transform="translate(-64.99 -65.265)" fill="#ceffcc"><g transform="matrix(2.156 -.64349 .6167 2.0663 27.617 41.73)"><g transform="rotate(-54.406,32.411,46.699)" fill="#ceffcc"><path d="m31.223 22.313c3.9688 0 3.9688 5.2917 0 5.2917s-3.9586 4.0292-0.42483 5.6766c3.0446 1.4194 3.9708 4.2207 1.2564 7.6943-2.5251 3.2314 0.98756 6.529 6.2793 6.529l-9.4451 3.3693-8.3359-25.212 9.4448-3.369z" fill="#ceffcc"/></g></g></g><g transform="translate(-67.636 -63.941)" fill="#d199ff"><g transform="matrix(2.156 -.64349 .6167 2.0663 27.617 41.73)"><g transform="rotate(-54.406,32.411,46.699)" fill="#d199ff"><path d="m31.223 22.313c3.9688 0 3.9688 5.2917 0 5.2917s-3.9586 4.0292-0.42483 5.6766c3.0446 1.4194 3.9708 4.2207 1.2564 7.6943-2.5251 3.2314 0.98756 6.529 6.2793 6.529l-9.4451 3.3693-8.3359-25.212 9.4448-3.369z" fill="#d199ff"/></g></g></g><g transform="translate(-70.281 -62.619)" fill="#ff99d3"><g transform="matrix(2.156 -.64349 .6167 2.0663 27.617 41.73)"><g transform="rotate(-54.406,32.411,46.699)" fill="#ff99d3"><path d="m31.223 22.313c3.9688 0 3.9688 5.2917 0 5.2917s-3.9586 4.0292-0.42483 5.6766c3.0446 1.4194 3.9708 4.2207 1.2564 7.6943-2.5251 3.2314 0.98756 6.529 6.2793 6.529l-9.4451 3.3693-8.3359-25.212 9.4448-3.369z" fill="#ff99d3"/></g></g></g><g transform="translate(-72.927 -61.295)" fill="#cff"><g transform="matrix(2.156 -.64349 .6167 2.0663 27.617 41.73)" fill="#cff"><g transform="rotate(-54.406,32.411,46.699)" fill="#cff"><path d="m31.223 22.313c3.9688 0 3.9688 5.2917 0 5.2917s-3.9586 4.0292-0.42483 5.6766c3.0446 1.4194 3.9708 4.2207 1.2564 7.6943-2.5251 3.2314 0.98756 6.529 6.2793 6.529l0.03705 0.11205-9.56 3.4101-8.4103-25.436 9.56-3.4101 0.03705 0.11205z" fill="#cff"/></g></g></g></svg>
