<?xml version="1.0" encoding="UTF-8"?>
<svg width="256" height="256" data-name="Warstwa 2" version="1.1" viewBox="0 0 256 256" xmlns="http://www.w3.org/2000/svg" xmlns:xlink="http://www.w3.org/1999/xlink"><defs><pattern id="pattern21" patternTransform="scale(.48086)" preserveAspectRatio="xMidYMid" xlink:href="#halftones"/><pattern id="halftones" width="10" height="10" style="fill:#99054a" patternUnits="userSpaceOnUse" preserveAspectRatio="xMidYMid"><g id="fullPattern" transform="scale(.1)"><circle cx="50" cy="50" r="25" style="paint-order:markers fill stroke;stop-color:#000000"/><path d="m25 0a25 25 0 0 1-25 25 25 25 0 0 1-25-25 25 25 0 0 1 25-25 25 25 0 0 1 25 25z" style="paint-order:markers fill stroke"/><path d="m125 0a25 25 0 0 1-25 25 25 25 0 0 1-25-25 25 25 0 0 1 25-25 25 25 0 0 1 25 25z" style="paint-order:markers fill stroke"/><path d="m25 100a25 25 0 0 1-25 25 25 25 0 0 1-25-25 25 25 0 0 1 25-25 25 25 0 0 1 25 25z" style="paint-order:markers fill stroke"/><path d="m125 100a25 25 0 0 1-25 25 25 25 0 0 1-25-25 25 25 0 0 1 25-25 25 25 0 0 1 25 25z" style="paint-order:markers fill stroke"/></g></pattern><style>.cls-1, .cls-2, .cls-3, .cls-4, .cls-5, .cls-6, .cls-7 {
        stroke-width: 0px;
      }

      .cls-1, .cls-8, .cls-9 {
        fill: none;
      }

      .cls-2 {
        fill: url(#dots_pink);
      }

      .cls-8 {
        stroke-linejoin: round;
        stroke-width: 5px;
      }

      .cls-8, .cls-9 {
        stroke: #000;
      }

      .cls-9 {
        stroke-linecap: round;
        stroke-miterlimit: 10;
        stroke-width: 4px;
      }

      .cls-4 {
        fill: #36a9e1;
      }

      .cls-5 {
        fill: #fff5cc;
      }

      .cls-6 {
        fill: #e6007e;
      }

      .cls-7 {
        fill: #ff99d3;
      }</style><pattern id="dots_pink" width="28.801" height="28.8" data-name="dots pink" patternTransform="translate(-.596)" patternUnits="userSpaceOnUse" viewBox="0 0 28.801 28.8"><rect class="cls-1" width="28.801" height="28.8"/><path class="cls-6" d="m28.801 33.121c2.385 0 4.318-1.935 4.318-4.32s-1.934-4.319-4.318-4.319-4.32 1.934-4.32 4.319 1.934 4.32 4.32 4.32z"/><path class="cls-6" d="m14.401 33.121c2.385 0 4.32-1.935 4.32-4.32s-1.936-4.319-4.32-4.319-4.32 1.934-4.32 4.319 1.934 4.32 4.32 4.32z"/><path class="cls-6" d="m28.801 18.72c2.385 0 4.318-1.935 4.318-4.32s-1.934-4.319-4.318-4.319-4.32 1.934-4.32 4.319 1.934 4.32 4.32 4.32z"/><path class="cls-6" d="m14.401 18.72c2.385 0 4.32-1.935 4.32-4.32s-1.936-4.319-4.32-4.319-4.32 1.934-4.32 4.319 1.934 4.32 4.32 4.32z"/><path class="cls-6" d="m7.2 25.92c2.385 0 4.32-1.935 4.32-4.319s-1.935-4.32-4.32-4.32-4.32 1.934-4.32 4.32 1.936 4.319 4.32 4.319z"/><path class="cls-6" d="m21.6 25.92c2.385 0 4.32-1.935 4.32-4.319s-1.935-4.32-4.32-4.32-4.32 1.934-4.32 4.32 1.936 4.319 4.32 4.319z"/><path class="cls-6" d="m7.2 11.52c2.385 0 4.32-1.935 4.32-4.319s-1.935-4.32-4.32-4.32-4.32 1.935-4.32 4.32 1.936 4.319 4.32 4.319z"/><path class="cls-6" d="m21.6 11.52c2.385 0 4.32-1.935 4.32-4.319s-1.935-4.32-4.32-4.32-4.32 1.935-4.32 4.32 1.936 4.319 4.32 4.319z"/><path class="cls-6" d="m0 33.121c2.385 0 4.318-1.935 4.318-4.32s-1.933-4.32-4.318-4.32-4.32 1.934-4.32 4.319 1.933 4.321 4.32 4.321z"/><path class="cls-6" d="m0,18.72c2.385,0,4.318-1.935,4.318-4.32S2.385,10.081,0,10.081s-4.32,1.934-4.32,4.319S-2.387,18.72,0,18.72Z"/><path class="cls-6" d="m28.801 4.321c2.385 0 4.318-1.935 4.318-4.32s-1.934-4.319-4.318-4.319-4.32 1.933-4.32 4.318 1.934 4.32 4.32 4.32z"/><path class="cls-6" d="m14.401 4.321c2.385 0 4.32-1.935 4.32-4.321s-1.936-4.319-4.32-4.319-4.321 1.934-4.321 4.319 1.934 4.32 4.32 4.32z"/><path class="cls-6" d="m0,4.321C2.385,4.321,4.318,2.386,4.318,0S2.385-4.319,0-4.319-4.32-2.385-4.32,0-2.387,4.321,0,4.321Z"/></pattern><linearGradient id="linearGradient23" x1="125.91" x2="125.91" y1="152.18" y2="252.37" gradientUnits="userSpaceOnUse"><stop style="stop-color:#ff66bd" offset="0"/><stop style="stop-color:#ff66bd;stop-opacity:0" offset="1"/></linearGradient><linearGradient id="linearGradient42" x1="-4" x2="260" y1="221.26" y2="221.26" gradientUnits="userSpaceOnUse"><stop style="stop-color:#0ff;stop-opacity:0" offset="0"/><stop style="stop-color:#1ae5e5" offset=".5"/><stop style="stop-color:#0ff;stop-opacity:0" offset="1"/></linearGradient></defs><path class="cls-9" d="m111.38 183.02c0-8.932 3.658-13.74 11.838-22.045" style="display:none"/><circle class="cls-3" cx="169.51" cy="128.9" r="7.514" style="display:none"/><g transform="translate(-3.5573)"><path class="cls-4" d="m227.77 192.17c-10.367-6.3329-33.795-17.753-61.732-11.468-10.271 2.3129-13.182 5.5298-18.472 10.819-5.2894 5.2894-12.633 44.98-19.234 68.763h-6.732c5.4674-15.868 10.745-52.841 9.1363-61.55-1.6084-8.709-7.5888-16.673-14.938-20.855-10.124-5.2413-26.957 3.0054-46.292-0.8463-16.046-3.1977-34.237-15.902-38.382-32.458-5.5106-21.994 7.1455-45.316 29.89-57.722 10.492-5.7222 29.981-9.4536 42.926-24.413 1.6109-1.8561 5.3952-10.175 1.6974-16.931-2.5005-4.5681-8.064-7.5302-12.983-7.059-4.0873 0.38949-6.8186 2.6159-9.3142 5.3616-5.2462 5.7751-12.925 5.6356-19.73 7.8957-1.8609 0.62031-3.2151 1.7465-4.1633 2.7117-1.6782-8.189 6.4425-7.5155 4.1921-12.43-1.9138-4.1835-5.8713-1.4137-10.709-3.818 0.97614-0.91363 1.8176-1.7407 2.4235-2.4476 2.9861-3.4958 5.6597-13.849 18.138-16.027 6.6743-1.1685 28.467-0.24524 40.95 16.599 3.8324 5.1692 8.6939 17.234 3.6689 28.101-9.0978 19.648-39.786 32.645-51.38 39.055-9.1171 5.0394-18.181 17.34-18.701 26.89-0.38469 7.1263 1.9763 11.459 5.6837 13.19 6.8763 3.2121 11.541-3.0534 13.002-10.281 3.2169-15.883 10.795-24.187 24.706-29.693 16.21-6.4098 39.411-2.5341 52.346 2.3899 46.845 17.811 74.1 61.035 86.198 84.164 0.7357 1.4041-0.8415 2.8803-2.1975 2.0581z" style="fill:url(#linearGradient23)"/><path class="cls-2" d="m230.89 189.38c-10.367-6.3329-33.795-17.753-61.732-11.468-10.271 2.3129-18.614 6.4435-24.942 10.521-4.4864 2.89-10.473 1.7984-13.493-2.5966-2.8371-4.1306-6.6551-8.0784-11.805-10.747-15.099-7.8139-26.957 3.0054-46.292-0.8463-16.046-3.1977-34.237-15.902-38.382-32.458-5.5106-21.994 7.1455-45.316 29.89-57.722 10.492-5.7222 29.981-9.4537 42.926-24.413 1.6109-1.8561 5.3952-10.175 1.6974-16.931-2.5005-4.5681-8.064-7.5302-12.983-7.059-4.0873 0.38949-6.8186 2.6159-9.3142 5.3616-5.2462 5.7751-12.925 5.6357-19.73 7.8957-1.8609 0.62031-3.3612 2.0677-3.9767 3.9286-1.6782-8.189 6.256-8.7324 4.0055-13.647-1.9138-4.1835-5.8713-1.4137-10.709-3.818 0.97614-0.91363 1.8176-1.7407 2.4235-2.4476 2.9861-3.4958 5.6597-13.849 18.138-16.027 6.6743-1.1685 28.467-0.24524 40.95 16.599 3.8324 5.1692 8.6939 17.234 3.669 28.101-9.0978 19.648-39.786 32.645-51.38 39.055-9.1171 5.0394-18.181 17.34-18.701 26.89-0.38469 7.1263 1.9763 11.459 5.6837 13.19 6.8763 3.2121 11.541-3.0534 13.002-10.281 3.2169-15.883 10.795-24.187 24.706-29.693 16.21-6.4098 39.411-2.5341 52.346 2.3899 46.845 17.811 74.1 61.035 86.198 84.164 0.73571 1.4041-0.8415 2.8803-2.1975 2.0581z" style="fill:url(#pattern21)"/><path class="cls-7" d="m41.996 54.65c-0.34573-4.8868 2.1662-13.118 10.932-16.476h0.0046c4.8374 2.4043 8.7949-0.36546 10.709 3.818 2.2504 4.9144-5.8703 4.2409-4.1921 12.43-6.1952 7.2814-5.8299 11.899-6.8851 16.909-1.0552 5.0102-5.1607 4.3239-6.1423 1.0179 0 0-4.0806-12.812-4.4263-17.699z"/></g><g style="stroke:url(#linearGradient42)"><path d="m-2 209.99c20-15 45-15 65 0s45 15.039 65 0.0387c20-15 45-15.039 65-0.0387 20 15 45 15 65 0" style="fill:none;stroke-linecap:round;stroke-linejoin:round;stroke-width:4;stroke:url(#linearGradient42)"/><path d="m-2 221.25c20-15 45-15 65 0s45 15.039 65 0.0387c20-15 45-15.039 65-0.0387 20 15 45 15 65 0" style="fill:none;stroke-linecap:round;stroke-linejoin:round;stroke-width:4;stroke:url(#linearGradient42)"/><path d="m-2 232.51c20-15 45-15 65 0s45 15.039 65 0.0387c20-15 45-15.039 65-0.0387 20 15 45 15 65 0" style="fill:none;stroke-linecap:round;stroke-linejoin:round;stroke-width:4;stroke:url(#linearGradient42)"/></g></svg>
