<?xml version="1.0" encoding="UTF-8"?>
<svg width="128" height="256" version="1.1" viewBox="0 0 33.867 67.733" xmlns="http://www.w3.org/2000/svg" xmlns:xlink="http://www.w3.org/1999/xlink"><defs><linearGradient id="linearGradient3" x2="7.9376" y1="44.979" y2="44.979" gradientUnits="userSpaceOnUse"><stop stop-color="#805000" stop-opacity="0" offset="0"/><stop stop-color="#805000" offset="1"/></linearGradient></defs><path d="m17.299 8.8107c2.1013 0.64855 3.5435 2.4801 3.7777 4.5368 4.8416-1.8898 8.0419 2.4747 8.3542 4.3729-0.18519-0.15742-3.6672-2.7747-7.8277-0.90288 5.7577 1.2428 8.2892 8.514 4.2705 13.155 0.24346-4.0587-2.1494-7.4424-4.78-9.0377 2.1148 4.166-0.02458 9.2864-2.8672 11.101 4.0182-9.068-7.6912-15.724-13.943-10.098 0.9704-3.1833 4.8163-7.0288 10.028-6.1528-3.0579-3.1063-7.6026-3.2757-9.6526-2.5749 3.1557-4.67 10.713-4.0891 13.492 0.86411 0.02444-2.6933-1.7423-4.8083-2.8251-5.4828 0.22544-0.033188 1.037-0.0698 1.9732 0.21868z" fill="#900aff"/><path d="m14.749 22.05c-8.7313 10.583-13.426 33.513-14.749 45.683v-22.754c2.6458-7.9375 6.8107-14.992 14.749-22.929z" fill="url(#linearGradient3)"/></svg>
