<?xml version="1.0" encoding="UTF-8"?>
<svg width="128" height="256" version="1.1" viewBox="0 0 33.867 67.733" xmlns="http://www.w3.org/2000/svg"><path d="m17.299 8.8107c0.30098 0.092896 0.5933 0.21185 0.87359 0.35559 0.28029 0.1437 0.5475 0.31159 0.79858 0.50177 0.08371 0.063291 0.16556 0.129 0.24546 0.19704 0.07974 0.068122 0.15749 0.13854 0.23314 0.21118 0.07572 0.07267 0.14931 0.14753 0.22067 0.22449 0.07151 0.07692 0.14077 0.15591 0.20768 0.23686 0.06669 0.08102 0.13102 0.16396 0.19289 0.24872 0.062 0.08462 0.12153 0.17103 0.1785 0.25911 0.05694 0.08814 0.11132 0.17791 0.16304 0.2692 0.05157 0.09131 0.1005 0.1841 0.14669 0.27825 0.04644 0.09414 0.09013 0.18963 0.13101 0.28632 0.04068 0.09683 0.07855 0.19482 0.11352 0.29386 0.03508 0.09891 0.06728 0.19881 0.09655 0.2996 0.0293 0.10068 0.05568 0.20218 0.07908 0.30439 0.02331 0.10226 0.04363 0.20518 0.06097 0.30861 0.01424 0.08698 0.02634 0.17429 0.03631 0.26184 0.1054-0.04114 0.2119-0.07944 0.31938-0.11483 0.1156-0.03782 0.23226-0.07228 0.34986-0.10332 0.11759-0.03093 0.23608-0.05846 0.35527-0.08252 0.11924-0.02416 0.23916-0.04484 0.3596-0.06203 0.12029-0.01712 0.24107-0.03075 0.36216-0.04086 0.12122-0.01013 0.24274-0.01674 0.36435-0.0198 0.12162-3e-3 0.2433-0.0025 0.36489 0.0016 0.12163 4e-3 0.24313 0.01155 0.36433 0.02262 0.12122 0.0112 0.24212 0.02587 0.36249 0.04406 0.12011 0.01809 0.23969 0.03958 0.35856 0.06457 0.1191 0.02503 0.23745 0.05358 0.3549 0.08552 0.05865 0.01606 0.1171 0.03268 0.17525 0.05038 0.05817 0.01769 0.11607 0.03641 0.17368 0.05586 0.11524 0.03859 0.22933 0.08059 0.34213 0.12583 0.11294 0.04556 0.22454 0.0944 0.33463 0.14646 0.11003 0.05184 0.21854 0.10687 0.32537 0.16502 0.10676 0.05802 0.21182 0.11913 0.31502 0.18325 0.1033 0.0644 0.20472 0.1318 0.30409 0.20212 0.29819 0.21064 0.57743 0.44694 0.8345 0.70615 0.25714 0.25904 0.49119 0.54005 0.69946 0.83979 0.20818 0.29996 0.38979 0.61756 0.54272 0.94912 0.15294 0.33158 0.27665 0.67592 0.36969 1.029 0.0077 0.04155 0.01498 0.08321 0.02184 0.12491-0.05127-0.04358-0.1031-0.08651-0.15548-0.12876-0.11171-0.07885-0.22547-0.15478-0.34114-0.22768-0.1159-0.07307-0.23372-0.14309-0.3533-0.20998-0.11944-0.06692-0.24062-0.1307-0.36339-0.19126-0.12269-0.06041-0.24693-0.11761-0.3726-0.17152-0.12588-0.05404-0.25317-0.10477-0.38171-0.15214-0.12845-0.04718-0.25811-0.091-0.38884-0.13141-0.13079-0.0406-0.26259-0.07789-0.39531-0.11165-0.13262-0.03353-0.26609-0.06366-0.40028-0.09027-0.13425-0.02672-0.26919-0.04991-0.40466-0.06957-0.13542-0.01971-0.27134-0.03579-0.4076-0.04838-0.13639-0.01244-0.27307-0.02136-0.40991-0.02668-0.13678-0.0053-0.27369-0.0071-0.41057-0.0053-0.13682 0.0019-0.2736 0.0074-0.41014 0.01646-0.13644 9e-3 -0.27262 0.02162-0.4084 0.03778-0.13601 0.01603-0.27159 0.03561-0.40657 0.05873-0.13502 0.02333-0.26942 0.05019-0.40303 0.08057-0.13336 0.03019-0.26591 0.06388-0.39751 0.10102-0.13173 0.03718-0.26249 0.0778-0.3921 0.12182-0.12968 0.04403-0.2582 0.09145-0.38539 0.14221-0.0805 0.03305-0.16045 0.06743-0.2398 0.10313 0.35381 0.07637 0.70213 0.17636 1.0426 0.29927 0.44046 0.1694 0.86533 0.37696 1.2697 0.62029 0.13465 0.08101 0.26693 0.16593 0.39664 0.25464 0.12982 0.08874 0.25702 0.18124 0.38146 0.27738 0.12439 0.09618 0.24598 0.19598 0.36457 0.29924 0.11843 0.10323 0.23384 0.20991 0.34607 0.31985 0.11244 0.10989 0.22167 0.22303 0.32753 0.33927 0.10584 0.11637 0.20828 0.23583 0.30717 0.35817 0.09878 0.12211 0.19399 0.24709 0.28552 0.37473 0.09161 0.12781 0.17949 0.25826 0.2635 0.39118 0.08397 0.13274 0.16408 0.2679 0.2402 0.4053 0.0761 0.13761 0.14819 0.27742 0.21616 0.41922 0.06805 0.14165 0.13197 0.28527 0.19166 0.43064 0.05963 0.1456 0.11502 0.29292 0.16608 0.44175 0.05107 0.1486 0.0978 0.29868 0.14014 0.45001 0.04244 0.15134 0.08047 0.30388 0.11404 0.45743 0.03341 0.15357 0.06237 0.3081 0.08681 0.46335 0.0245 0.15544 0.04447 0.31157 0.05988 0.46818 0.01543 0.15637 0.0263 0.31316 0.0326 0.47016 0.0063 0.15714 8e-3 0.31444 0.0051 0.47168-0.0028 0.15715-0.01026 0.31419-0.02222 0.4709-0.01205 0.1566-0.02866 0.31284-0.0498 0.46847-0.02108 0.15586-0.04673 0.31107-0.07682 0.46543-0.0301 0.15432-0.06462 0.30776-0.10361 0.46009-0.03905 0.15216-0.08244 0.30318-0.13016 0.45284-0.04777 0.14979-0.09982 0.2982-0.15618 0.44498-0.05645 0.14679-0.11716 0.29192-0.18205 0.43518-0.06486 0.14308-0.13385 0.28425-0.20692 0.42332-0.0731 0.13928-0.15024 0.27641-0.23132 0.41119-0.23739 0.39234-0.50767 0.76386-0.80786 1.1105 0.0062-0.10336 0.01078-0.20681 0.01377-0.31031 0.0031-0.17484 0.0016-0.34975-0.0044-0.52452-0.0059-0.17466-0.01643-0.34915-0.03148-0.52326-0.01504-0.17424-0.03462-0.34807-0.05876-0.52129-0.02426-0.17306-0.05303-0.34547-0.0863-0.51703-0.0333-0.17157-0.0711-0.34224-0.11334-0.51183-0.04223-0.16964-0.08889-0.33815-0.13994-0.50534-0.05103-0.16727-0.10643-0.33319-0.16615-0.49755-0.05962-0.1643-0.12354-0.32704-0.19168-0.488-0.06828-0.16111-0.14078-0.32041-0.21741-0.47772-0.07655-0.15712-0.1572-0.31221-0.24186-0.4651-0.0846-0.15293-0.1732-0.30362-0.26568-0.45191-0.09253-0.1483-0.18893-0.29418-0.2891-0.43743-0.10018-0.14332-0.2041-0.28402-0.31163-0.42191-0.10749-0.13771-0.21858-0.27261-0.33313-0.40452-0.11469-0.13208-0.23282-0.26113-0.35426-0.38702-0.12139-0.12588-0.24608-0.24856-0.3739-0.36792-0.1277-0.11929-0.25852-0.23522-0.39229-0.34767-0.13385-0.11238-0.27062-0.22126-0.41016-0.32648-0.13963-0.10538-0.282-0.20707-0.42694-0.305-0.12658-0.0849-0.25508-0.16688-0.3854-0.24591 0.1167 0.22989 0.22353 0.46468 0.3202 0.70368 0.16197 0.44612 0.28865 0.90431 0.37885 1.3703 0.09041 0.46586 0.14407 0.93813 0.1605 1.4124 0.01626 0.47427-0.0048 0.94911-0.06287 1.4201-0.05822 0.47103-0.15332 0.9368-0.28448 1.3929-0.13104 0.45604-0.29771 0.9011-0.49847 1.3311-0.20087 0.4302-0.43526 0.84399-0.70097 1.2374-0.26573 0.39304-0.56195 0.76461-0.88587 1.1112-0.32385 0.34696-0.67449 0.66795-1.0486 0.96-0.08092 0.05546-0.16276 0.1096-0.24545 0.1624 0.14096-0.31811 0.26305-0.64429 0.36561-0.97681 0.12814-0.44555 0.22108-0.90052 0.27796-1.3606 0.05654-0.45998 0.07688-0.92373 0.06081-1.3869-0.01577-0.46341-0.06794-0.92488-0.15603-1.3801-0.08825-0.455-0.21211-0.9024-0.37044-1.338-0.1583-0.43576-0.35062-0.85844-0.57514-1.2641-0.22439-0.4056-0.48031-0.79296-0.76538-1.1585-0.2851-0.36534-0.59847-0.70775-0.93716-1.024-0.33892-0.31648-0.70222-0.60585-1.0865-0.86539-0.38398-0.25945-0.78778-0.48835-1.2076-0.68454-0.4202-0.19618-0.8552-0.35905-1.3009-0.48706-0.15343-0.04414-0.30804-0.08415-0.46364-0.1199-0.15586-0.03566-0.31266-0.06713-0.47022-0.09426-0.15731-0.02738-0.31537-0.05032-0.47394-0.06905-0.15871-0.01875-0.31792-0.0332-0.47741-0.04334-0.15949-0.01003-0.31925-0.01572-0.47905-0.0171-0.15981-0.0015-0.31965 0.0012-0.4793 0.0084-0.15956 0.0073-0.3189 0.01884-0.47784 0.03471-0.159 0.01588-0.31754 0.03608-0.47545 0.06055-0.15788 0.02443-0.31507 0.05313-0.47139 0.08607-0.15644 0.0328-0.31196 0.06985-0.4664 0.11107-0.15424 0.04129-0.30735 0.08676-0.45912 0.13634-0.15176 0.04973-0.30217 0.10357-0.45102 0.16145-0.14902 0.05774-0.29646 0.1195-0.44214 0.18522-0.14564 0.0658-0.28948 0.13555-0.43134 0.20914-0.14178 0.07363-0.28156 0.15109-0.41914 0.2323-0.13777 0.08097-0.27333 0.16567-0.40652 0.25399-0.13304 0.08854-0.26367 0.18069-0.39172 0.27631-0.12812 0.09552-0.25364 0.1945-0.3764 0.29682-0.045647 0.03943-0.090917 0.07933-0.13575 0.11968 0.016483-0.05407 0.033608-0.10794 0.051199-0.16166 0.051641-0.14953 0.10721-0.2977 0.16661-0.44434 0.059226-0.14666 0.12228-0.29176 0.18909-0.43512 0.066896-0.14311 0.13752-0.28446 0.2118-0.42387 0.074428-0.1396 0.1525-0.27723 0.23413-0.41274 0.081451-0.13556 0.16643-0.26899 0.25485-0.40012 0.088571-0.13099 0.18057-0.25965 0.27589-0.38582 0.095162-0.12629 0.19362-0.25008 0.29525-0.37122 0.10171-0.12095 0.20658-0.23923 0.31447-0.35469 0.10789-0.11571 0.2188-0.22859 0.3326-0.33848 0.11389-0.10974 0.23063-0.21648 0.35009-0.32009 0.11933-0.10364 0.24135-0.20415 0.36593-0.3014 0.12471-0.0973 0.25194-0.19134 0.38157-0.28198 0.12959-0.09058 0.26154-0.17776 0.39569-0.26142 0.1342-0.08379 0.27058-0.16406 0.40899-0.24071 0.13841-0.07646 0.27881-0.14929 0.42104-0.21838 0.14198-0.06915 0.28576-0.13459 0.43116-0.19623 0.14567-0.06183 0.29295-0.11985 0.44166-0.17397 0.14868-0.0539 0.29876-0.1039 0.45007-0.14994 0.15113-0.04625 0.30344-0.08853 0.45677-0.1268 0.15359-0.03819 0.30816-0.07236 0.46353-0.10246 0.1551-0.03 0.31098-0.05593 0.46744-0.07778 0.15661-0.0218 0.31379-0.03951 0.47134-0.05309 0.15753-0.01377 0.31539-0.02341 0.47342-0.02892 0.15809-0.0054 0.31632-0.0067 0.47447-0.0039 0.15811 3e-3 0.31613 0.0102 0.47386 0.02149 0.15762 0.01097 0.31492 0.02606 0.47174 0.04525 0.10142 0.01347 0.20262 0.02866 0.30352 0.04562-0.07704-0.07826-0.15535-0.15526-0.23492-0.23094-0.1277-0.11929-0.25852-0.23522-0.39229-0.34766-0.13385-0.11239-0.27062-0.22126-0.41016-0.32648-0.13963-0.10538-0.282-0.20707-0.42694-0.305-0.14476-0.09789-0.29208-0.19197-0.44176-0.28214-0.44958-0.27044-0.91975-0.50515-1.4061-0.70192-0.48643-0.19689-0.98758-0.35526-1.4988-0.47362-0.51112-0.1184-1.0308-0.19641-1.5541-0.23339-0.52344-0.037-1.049-0.03279-1.5718 0.01254-0.52272 0.04551-1.0411 0.13204-1.5503 0.25874-0.055313 0.01784-0.11047 0.03617-0.16547 0.05497 0.10509-0.15552 0.21556-0.30734 0.33118-0.45518 0.30987-0.35578 0.65024-0.68383 1.0172-0.98042 0.36686-0.29689 0.75895-0.56118 1.1718-0.78982 0.41288-0.22855 0.84495-0.42063 1.2912-0.57402 0.44625-0.15331 0.90505-0.26738 1.3711-0.34088 0.46614-0.073518 0.93783-0.10619 1.4097-0.097642 0.47183 0.00864 0.94201 0.058485 1.4052 0.14894 0.46298 0.09018 0.91724 0.22062 1.3576 0.38981 0.44058 0.16954 0.86552 0.37726 1.2699 0.62074 0.13468 0.08089 0.26699 0.16569 0.39674 0.25428 0.12966 0.08883 0.25671 0.18142 0.38099 0.27764 0.12443 0.09607 0.24604 0.19574 0.36468 0.29888 0.11856 0.10327 0.23409 0.20996 0.34644 0.31995 0.11232 0.10986 0.22142 0.22297 0.32716 0.33917 0.10584 0.11637 0.20828 0.23583 0.30717 0.35817 0.09878 0.12211 0.194 0.24708 0.28551 0.37473 0.09161 0.12781 0.17949 0.25826 0.2635 0.39118 0.06747 0.10799 0.13238 0.21754 0.19468 0.32858 6.5e-4 -0.07163 1.59e-4 -0.14328-0.0015-0.21491-0.0038-0.11789-0.01068-0.23567-0.02065-0.3532-0.01004-0.11776-0.02317-0.23523-0.03937-0.3523-0.01621-0.11706-0.03548-0.23368-0.05778-0.34974-0.02212-0.11589-0.04728-0.23119-0.07542-0.34577-0.02831-0.11468-0.05962-0.2286-0.0939-0.34165-0.03426-0.113-0.07147-0.22508-0.1116-0.33612-0.04004-0.11099-0.08298-0.22092-0.12877-0.32968-0.046-0.10879-0.09487-0.21636-0.14651-0.3226-0.05155-0.10631-0.10586-0.21127-0.16292-0.31473-0.05684-0.10337-0.11637-0.20523-0.17854-0.30548-0.06239-0.10037-0.12742-0.1991-0.19499-0.29607-0.06744-0.09695-0.13742-0.19212-0.20984-0.28541-0.072598-0.093288-0.14759-0.18465-0.22494-0.27401-0.077152-0.089196-0.15664-0.17636-0.23835-0.26139-0.081861-0.085142-0.16595-0.16812-0.25216-0.24887-0.086253-0.080855-0.17462-0.15943-0.265-0.23566-0.090128-0.076126-0.18223-0.14989-0.27622-0.2212-0.04847-0.031962-0.09734-0.063294-0.14662-0.09399 0.03607-0.00531 0.0722-0.010241 0.10836-0.01481 0.3147-0.015719 0.63019-0.00391 0.94285 0.035295 0.31251 0.039107 0.621 0.10545 0.92197 0.19819z" fill="#900aff"/><path d="m14.749 22.05c-8.7313 10.583-13.426 33.513-14.749 45.683v-22.754c2.6458-7.9375 6.8107-14.992 14.749-22.929z" fill="#805000"/></svg>
