<?xml version="1.0" encoding="UTF-8"?>
<svg width="128" height="256" version="1.1" viewBox="0 0 33.867 67.733" xmlns="http://www.w3.org/2000/svg"><path d="m17.637 1.1992c-0.3755 0.06201-0.74487 0.15664-1.1039 0.2829-0.35902 0.12621-0.70634 0.28352-1.038 0.47015-0.11055 0.062078-0.21928 0.12736-0.32604 0.19576-0.1066 0.068515-0.21118 0.14011-0.31361 0.2147-0.10252 0.074622-0.20285 0.15221-0.30086 0.23267-0.09818 0.080396-0.194 0.16363-0.28734 0.24961-0.09308 0.086087-0.18364 0.17486-0.27156 0.26621-0.08805 0.091172-0.17344 0.18488-0.25604 0.28102-0.08257 0.096202-0.16233 0.19478-0.23917 0.29562-0.07667 0.10088-0.1504 0.20397-0.22108 0.30913-0.07098 0.10512-0.13889 0.21228-0.20363 0.32134-0.06453 0.10927-0.12587 0.22039-0.18393 0.33323-0.05816 0.11267-0.11304 0.22701-0.16455 0.34287-0.05153 0.11573-0.09969 0.23294-0.14441 0.35146-0.04462 0.1186-0.08577 0.23848-0.12342 0.35948-0.03126 0.10179-0.06001 0.20433-0.08626 0.30753-0.11945-0.066483-0.24069-0.12974-0.36356-0.18967-0.13219-0.06417-0.26623-0.12449-0.40193-0.18087-0.13572-0.056264-0.27305-0.10857-0.41181-0.15685-0.13879-0.048405-0.27897-0.09277-0.42034-0.13302-0.1412-0.04016-0.28356-0.076216-0.42686-0.10811-0.14347-0.031946-0.28785-0.05971-0.43293-0.083257-0.14509-0.023486-0.29085-0.042756-0.43706-0.057766-0.14627-0.015092-0.29295-0.025914-0.43984-0.032471-0.14695-0.006439-0.29407-0.0085988-0.44114-0.0064658-0.14674 0.0019691-0.29341 0.0081999-0.43979 0.018688-0.14667 0.010522-0.29302 0.025322-0.43883 0.044362-0.072837 0.0095949-0.14552 0.019968-0.21804 0.031659-0.072524 0.011693-0.1449 0.024607-0.21705 0.038478-0.14427 0.027365-0.28771 0.058986-0.43013 0.094714-0.14265 0.036081-0.28422 0.076315-0.42453 0.12064-0.14019 0.044073-0.27908 0.092213-0.41647 0.14436-0.13728 0.052009-0.27303 0.108-0.40706 0.16789-0.13419 0.060213-0.26661 0.12432-0.39707 0.19225-0.39139 0.20343-0.76429 0.44066-1.1144 0.70895-0.35016 0.26807-0.67628 0.56622-0.97458 0.891-0.29825 0.32507-0.56756 0.67558-0.80482 1.0475-0.23729 0.37194-0.44166 0.76393-0.61074 1.1714-0.016016 0.048495-0.031535 0.09716-0.046561 0.14596 0.068504-0.043798 0.13757-0.086707 0.20717-0.12873 0.14661-0.076147 0.2952-0.14844 0.44559-0.21681 0.1507-0.068525 0.30318-0.13309 0.45726-0.19361 0.15392-0.060576 0.3094-0.11714 0.46628-0.16957 0.15674-0.052265 0.31483-0.10043 0.47408-0.14443 0.15953-0.044121 0.3202-0.084042 0.48181-0.11975 0.16147-0.035491 0.32386-0.06675 0.48697-0.093758 0.1632-0.027234 0.32708-0.050322 0.49148-0.06904 0.16424-0.018493 0.32894-0.032757 0.49393-0.042677 0.16508-0.010035 0.33041-0.015761 0.49579-0.01714 0.16533-0.00144 0.33068 0.00146 0.49585 0.00866 0.1653 0.00736 0.33039 0.019053 0.49507 0.035055 0.16462 0.015971 0.3288 0.036239 0.49236 0.060799 0.16349 0.024654 0.32631 0.053577 0.48829 0.086742 0.16186 0.033116 0.32283 0.070451 0.48273 0.11198 0.1602 0.04142 0.3193 0.087019 0.47711 0.13676 0.15782 0.050001 0.31432 0.10413 0.4693 0.16233 0.15471 0.057951 0.30789 0.11994 0.45936 0.1859 0.15163 0.066037 0.30151 0.13604 0.44948 0.20992 0.14804 0.073904 0.29414 0.15168 0.43811 0.23323 0.09097 0.052715 0.18106 0.10694 0.27022 0.16266-0.43603 0.03359-0.86936 0.09636-1.297 0.18787-0.55498 0.1308-1.0975 0.30984-1.6213 0.53503-0.17443 0.07497-0.34666 0.15502-0.51644 0.24-0.1699 0.08502-0.33731 0.17496-0.50198 0.26971-0.16464 0.09482-0.32649 0.19441-0.48534 0.29864-0.15865 0.10423-0.31424 0.21306-0.46657 0.32633-0.15256 0.11317-0.30182 0.23076-0.44754 0.35261-0.14573 0.12202-0.28788 0.24827-0.42626 0.37856-0.13821 0.13004-0.27262 0.26408-0.40304 0.40192-0.13055 0.13803-0.25707 0.27984-0.37938 0.42522-0.12222 0.14518-0.24021 0.2939-0.35379 0.44594-0.1136 0.1523-0.22274 0.30788-0.32729 0.46652-0.10461 0.15845-0.2046 0.31993-0.29983 0.4842-0.095187 0.16456-0.18557 0.33186-0.27102 0.50168-0.085418 0.16955-0.16589 0.34157-0.24131 0.5158-0.07554 0.17423-0.146 0.35063-0.21128 0.52896-0.065108 0.17838-0.12502 0.35863-0.17965 0.5405-0.054732 0.18208-0.10416 0.36573-0.14821 0.55068-0.044018 0.18467-0.08266 0.37059-0.11587 0.55751-0.033177 0.18709-0.060909 0.37512-0.083149 0.56382-0.022291 0.18859-0.039084 0.3778-0.05037 0.56736-0.01116 0.18944-0.016817 0.37919-0.01695 0.56896-2.3e-4 0.19002 0.00507 0.38002 0.015889 0.56972 0.010752 0.18966 0.027023 0.37899 0.048787 0.56771 0.021848 0.18853 0.049129 0.37642 0.081803 0.56338 0.032698 0.18713 0.070757 0.37329 0.11424 0.55821 0.04358 0.18495 0.092537 0.36861 0.1468 0.55071 0.054257 0.18188 0.11378 0.36216 0.17852 0.54058 0.064745 0.17868 0.13468 0.35545 0.20972 0.53006 0.22005 0.50848 0.48288 0.9974 0.78561 1.4614 0.00948-0.12474 0.020891-0.24934 0.034237-0.37373 0.024855-0.20982 0.0552-0.41896 0.091004-0.62719 0.035644-0.20812 0.076727-0.41529 0.12321-0.62126 0.046477-0.20613 0.098342-0.41102 0.15554-0.61444 0.057319-0.20321 0.11995-0.4049 0.18782-0.60483 0.06791-0.19994 0.14105-0.39808 0.21933-0.5942 0.078279-0.19617 0.16169-0.39027 0.25013-0.58207 0.088425-0.1919 0.18187-0.38146 0.28022-0.56847 0.09823-0.18695 0.20134-0.3713 0.30922-0.55286 0.10808-0.1817 0.22091-0.36056 0.33835-0.53635 0.11732-0.17557 0.23922-0.34806 0.36556-0.51725 0.12627-0.16924 0.25697-0.33516 0.39192-0.49757 0.13501-0.16241 0.27426-0.32128 0.41758-0.4764 0.14335-0.15521 0.29074-0.30665 0.44202-0.45414 0.15119-0.1473 0.30622-0.29062 0.46491-0.4298 0.15888-0.13937 0.32139-0.27456 0.48735-0.40541 0.1659-0.13085 0.33521-0.25734 0.50773-0.37933 0.17237-0.12193 0.34792-0.23934 0.52644-0.35208 0.1786-0.11266 0.36013-0.22064 0.54437-0.3238 0.18437-0.10332 0.37143-0.2018 0.56095-0.29533 0.1654-0.08094 0.33264-0.15809 0.50156-0.23139-0.17727 0.25613-0.34355 0.51973-0.49834 0.79005-0.26682 0.50758-0.49335 1.0354-0.67748 1.5785-0.18437 0.54291-0.3258 1.0995-0.42298 1.6646-0.096989 0.56509-0.14943 1.137-0.15683 1.7103-0.00732 0.57339 0.030426 1.1465 0.1129 1.714 0.082331 0.56734 0.20912 1.1274 0.37917 1.6749 0.17015 0.54784 0.38311 1.0815 0.6369 1.596 0.25387 0.51394 0.54774 1.0072 0.87886 1.4751 0.33098 0.46828 0.69826 0.90986 1.0984 1.3206 0.08781 0.07962 0.17693 0.15781 0.26729 0.23453-0.11675-0.40386-0.20959-0.81428-0.27802-1.2291-0.08058-0.55432-0.11748-1.1142-0.11035-1.6743 0.0075-0.5599 0.05894-1.1184 0.15389-1.6702 0.09462-0.55216 0.23251-1.0961 0.41236-1.6266 0.18001-0.53027 0.40142-1.0456 0.66215-1.5412 0.26073-0.49578 0.56004-0.97034 0.89512-1.4192 0.33491-0.44887 0.70459-0.87077 1.1056-1.2617 0.401-0.39076 0.83212-0.74944 1.2893-1.0727 0.45746-0.32347 0.93966-0.6105 1.4421-0.8584 0.50208-0.24783 1.0229-0.45585 1.5575-0.62211 0.53509-0.16618 1.0824-0.29005 1.6369-0.37044 0.19089-0.02777 0.38252-0.05039 0.57464-0.06776 0.19241-0.01724 0.38526-0.02925 0.57832-0.03604 0.1928-7e-3 0.38576-0.0087 0.57865-0.0052 0.19306 0.0035 0.38601 0.01222 0.57859 0.02615 0.19257 0.01406 0.38475 0.03336 0.57628 0.05783 0.19156 0.02428 0.38245 0.05374 0.57241 0.08836 0.18983 0.03476 0.37869 0.07467 0.56636 0.11966 0.18774 0.045 0.37424 0.09509 0.55927 0.15019 0.185 0.05505 0.36849 0.1151 0.55024 0.18008 0.18191 0.06484 0.36204 0.1346 0.54018 0.20919 0.17789 0.07464 0.35375 0.15409 0.52734 0.23825 0.17355 0.08434 0.3448 0.17338 0.51354 0.26699 0.16896 0.09347 0.33537 0.19151 0.49902 0.29399 0.16359 0.10258 0.32438 0.20958 0.48218 0.32087 0.15769 0.11132 0.31235 0.22689 0.46379 0.34658 0.15169 0.11945 0.30013 0.243 0.44514 0.3705 0.14479 0.12775 0.28611 0.2594 0.42377 0.3948 0.13776 0.13529 0.27185 0.2743 0.40208 0.41685 0.0482 0.05466 0.09587 0.10982 0.14295 0.16546-0.0109-0.06742-0.02259-0.13472-0.03487-0.2019-0.03738-0.18745-0.07968-0.37391-0.12682-0.55914-0.04693-0.18525-0.09869-0.36925-0.15525-0.55179-0.05669-0.18225-0.11813-0.36301-0.18426-0.54205-0.06628-0.17928-0.13724-0.3568-0.21282-0.53237-0.07535-0.1756-0.15527-0.34921-0.23969-0.52063-0.08462-0.17129-0.17373-0.34034-0.26721-0.50696-0.09328-0.16674-0.19091-0.33102-0.29278-0.49264-0.10199-0.16141-0.20819-0.32014-0.31848-0.476-0.11024-0.15615-0.22456-0.3094-0.34283-0.45956-0.1184-0.14998-0.2407-0.29684-0.36679-0.44041-0.12591-0.14357-0.25556-0.28383-0.3888-0.42062-0.13338-0.13687-0.27033-0.27023-0.41069-0.39993-0.14033-0.12961-0.28404-0.25554-0.43096-0.37762-0.14696-0.12224-0.29711-0.24062-0.45026-0.355-0.1532-0.11415-0.30937-0.22428-0.46833-0.33025-0.15867-0.10599-0.32009-0.20783-0.48408-0.30538-0.16428-0.09783-0.3311-0.19135-0.50028-0.28044-0.16918-0.08882-0.34068-0.17321-0.51428-0.25306-0.17336-0.08006-0.34878-0.15557-0.52609-0.22645-0.17762-0.07083-0.35707-0.137-0.53815-0.19842-0.18077-0.06126-0.36313-0.11778-0.54686-0.1695-0.18392-0.0517-0.36919-0.09858-0.55557-0.14058-0.18632-0.04222-0.37374-0.07957-0.56202-0.11199-0.18837-0.03234-0.37756-0.05974-0.56737-0.08217-0.18977-0.02222-0.38011-0.03946-0.57078-0.05172-0.19047-0.01263-0.38126-0.02028-0.57213-0.02294-0.12362-4.32e-4 -0.24724 0.0012-0.3708 5e-3 0.10501-0.081091 0.21135-0.16047 0.31898-0.23807 0.17237-0.12193 0.34792-0.23934 0.52644-0.35208 0.1786-0.11266 0.36012-0.22064 0.54437-0.3238 0.18437-0.10333 0.37143-0.2018 0.56095-0.29533 0.1893-0.093522 0.38102-0.18207 0.57495-0.26556 0.58241-0.25026 1.1836-0.45439 1.798-0.61047 0.61448-0.1562 1.2403-0.26388 1.8717-0.32201 0.63122-0.058177 1.2661-0.066666 1.8986-0.025391 0.63267 0.041263 1.2611 0.13219 1.8796 0.27192 0.61832 0.13992 1.2247 0.32822 1.8135 0.56314 0.0633 0.030399 0.12634 0.061353 0.1891 0.092848-0.10038-0.20335-0.20781-0.40315-0.32206-0.59903-0.31281-0.47655-0.66664-0.92491-1.0574-1.3399-0.39064-0.41536-0.81683-0.79584-1.2737-1.137-0.4569-0.34109-0.94275-0.64164-1.4519-0.8982-0.50915-0.25647-1.0398-0.46801-1.5857-0.63218-0.546-0.1642-1.1053-0.28041-1.6716-0.34729-0.56624-0.066764-1.1373-0.083952-1.7065-0.051367-0.56899 0.032293-1.1341 0.1142-1.6888 0.24476-0.55513 0.13095-1.0978 0.31015-1.6217 0.53555-0.17445 0.074826-0.3467 0.15472-0.5165 0.23955-0.16974 0.085149-0.33697 0.17522-0.50147 0.2701-0.16465 0.094668-0.32653 0.19411-0.4854 0.29819-0.1588 0.10425-0.31455 0.2131-0.46702 0.3264-0.15241 0.11316-0.30151 0.23072-0.44709 0.35255-0.14573 0.12202-0.28788 0.24827-0.42626 0.37856-0.13821 0.13004-0.27262 0.26407-0.40304 0.40192-0.13056 0.13803-0.25707 0.27984-0.37938 0.42522-0.09841 0.11824-0.19403 0.23879-0.28676 0.36153 0.01093-0.085862 0.02323-0.17155 0.03689-0.25703 0.02383-0.14051 0.05131-0.28037 0.08245-0.41944 0.03127-0.13932 0.06619-0.27781 0.10471-0.4153 0.03853-0.13749 0.08066-0.27394 0.12634-0.40922 0.04543-0.13512 0.09438-0.26903 0.14681-0.40159 0.05263-0.13266 0.10873-0.26392 0.16824-0.39364 0.05948-0.12967 0.12234-0.25776 0.18852-0.38414 0.06607-0.12633 0.13544-0.25091 0.20803-0.37361 0.07286-0.12271 0.14893-0.2435 0.22812-0.36224 0.07908-0.11885 0.16127-0.23561 0.24646-0.35015 0.08494-0.11445 0.17285-0.22666 0.26366-0.33651 0.0911-0.10996 0.18508-0.21752 0.28182-0.32256 0.09658-0.10504 0.1959-0.20753 0.29785-0.30737 0.10211-0.099822 0.20682-0.19694 0.31401-0.29128 0.10694-0.094165 0.21633-0.18551 0.32805-0.27396 0.11192-0.088545 0.22614-0.17414 0.34254-0.2567 0.11647-0.082696 0.2351-0.16232 0.35574-0.2388 0.12034-0.076405 0.24265-0.14965 0.36682-0.21966 0.06325-0.030341 0.12687-0.059863 0.19088-0.088557-0.04231-0.012241-0.08475-0.024061-0.1273-0.035445-0.37415-0.070256-0.75376-0.10768-1.1345-0.11185-0.3805-0.00426-0.76064 0.024727-1.1361 0.086602z" fill="#900aff"/><path d="m18.973 17.105c7.9375 13.229 11.454 24.565 14.894 50.628v-22.818c-2.6797-10.398-6.9559-19.871-14.894-27.809z" fill="#805000"/></svg>
