<?xml version="1.0" encoding="UTF-8"?>
<svg width="128" height="256" version="1.1" viewBox="0 0 33.867 67.733" xmlns="http://www.w3.org/2000/svg"><defs><linearGradient id="linearGradient3" x1="33.867" x2="25.136" y1="50.78" y2="50.78" gradientUnits="userSpaceOnUse"><stop stop-color="#805000" stop-opacity="0" offset="0"/><stop stop-color="#805000" offset="1"/></linearGradient></defs><path d="m12.373 6.0129c-5.2312-2.9115-9.9405 1.3522-10.716 3.8694 1.4953-0.95603 5.7869-2.1333 9.5182 0.19852-6.6895 0.51533-11.523 8.5193-7.2622 15.05 0.30683-4.0373 2.8976-8.1712 7.1995-10.038-3.2174 4.6486-1.5088 11.104 1.6179 13.759-2.8807-9.9648 10.754-18.776 18.341-9.8092-0.4449-2.7519-3.6508-9.2305-10.999-9.0045 4.3287-3.3427 9.7925-2.6007 11.976-1.5048-2.4157-4.8937-11.394-7.6536-16.292-1.1706 0.36835-2.8936 2.4481-5.2815 4.2779-6.1018-2.1789-0.6304-6.5928 0.55041-7.6617 4.7528z" fill="#ba66ff"/><path d="m18.973 17.105c7.9375 13.229 11.454 24.565 14.894 50.628v-22.818c-2.6797-10.398-6.9559-19.871-14.894-27.809z" fill="url(#linearGradient3)"/></svg>
