<?xml version="1.0" encoding="UTF-8"?>
<svg width="128" height="256" version="1.1" viewBox="0 0 33.867 67.733" xmlns="http://www.w3.org/2000/svg" xmlns:xlink="http://www.w3.org/1999/xlink"><defs><pattern id="pattern5" patternTransform="scale(.05)" preserveAspectRatio="xMidYMid" xlink:href="#halftones"/><pattern id="halftones" width="10" height="10" fill="#ff0000" patternUnits="userSpaceOnUse" preserveAspectRatio="xMidYMid"><g id="fullPattern" transform="scale(.1)"><circle cx="50" cy="50" r="25" stop-color="#000000" style="paint-order:markers fill stroke"/><path d="m25 0a25 25 0 0 1-25 25 25 25 0 0 1-25-25 25 25 0 0 1 25-25 25 25 0 0 1 25 25z" style="paint-order:markers fill stroke"/><path d="m125 0a25 25 0 0 1-25 25 25 25 0 0 1-25-25 25 25 0 0 1 25-25 25 25 0 0 1 25 25z" style="paint-order:markers fill stroke"/><path d="m25 100a25 25 0 0 1-25 25 25 25 0 0 1-25-25 25 25 0 0 1 25-25 25 25 0 0 1 25 25z" style="paint-order:markers fill stroke"/><path d="m125 100a25 25 0 0 1-25 25 25 25 0 0 1-25-25 25 25 0 0 1 25-25 25 25 0 0 1 25 25z" style="paint-order:markers fill stroke"/></g></pattern></defs><path d="m14.748 22.05c-8.671 10.632-13.494 34.649-14.748 46.826l-0.13225-23.283c2.6007-7.9524 6.987-15.561 14.88-23.543z" fill="#008300"/><path d="m17.299 8.8107c2.1013 0.64855 3.5435 2.4801 3.7777 4.5368 4.8416-1.8898 8.0419 2.4747 8.3542 4.3729-0.18519-0.15742-3.6672-2.7747-7.8277-0.90288 5.7577 1.2428 8.2892 8.514 4.2705 13.155 0.24346-4.0587-2.1494-7.4424-4.78-9.0377 2.1148 4.166-0.02458 9.2864-2.8672 11.101 4.0182-9.068-7.6912-15.724-13.943-10.098 0.9704-3.1833 4.8163-7.0288 10.028-6.1528-3.0579-3.1063-7.6026-3.2757-9.6526-2.5749 3.1557-4.67 10.713-4.0891 13.492 0.86411 0.02444-2.6933-1.7423-4.8083-2.8251-5.4828 0.22544-0.033188 1.037-0.0698 1.9732 0.21868z" fill="#900aff"/><path d="m14.749 22.051c-8.7912 10.533-13.886 34.494-15.278 46.656l0.13201-23.283c2.6908-7.9224 7.1632-15.481 15.146-23.373z" fill="url(#pattern5)"/></svg>
