<?xml version="1.0" encoding="UTF-8"?>
<svg width="128" height="256" version="1.1" viewBox="0 0 33.867 67.733" xmlns="http://www.w3.org/2000/svg"><path d="m12.373 6.0129c-5.2312-2.9115-9.9405 1.3522-10.716 3.8694 1.4953-0.95603 5.7869-2.1333 9.5182 0.19852-6.6895 0.51533-11.523 8.5193-7.2622 15.05 0.30683-4.0373 2.8976-8.1712 7.1995-10.038-3.2174 4.6486-1.5088 11.104 1.6179 13.759-2.8807-9.9648 10.754-18.776 18.341-9.8092-0.4449-2.7519-3.6508-9.2305-10.999-9.0045 4.3287-3.3427 9.7925-2.6007 11.976-1.5048-2.4157-4.8937-11.394-7.6536-16.292-1.1706 0.36835-2.8936 2.4481-5.2815 4.2779-6.1018-2.1789-0.6304-6.5928 0.55041-7.6617 4.7528z" fill="#ff0090"/><path d="m18.444 17.105c7.324 12.821 11.984 31.843 15.423 50.628v-22.754c-2.1167-6.6146-7.4851-19.936-15.423-27.874z" fill="#805000"/></svg>
