<?xml version="1.0" encoding="UTF-8"?>
<svg width="320" height="192" version="1.1" viewBox="0 0 84.667 50.8" xmlns="http://www.w3.org/2000/svg"><defs><linearGradient id="linearGradient47" x1="13.471" x2="27.362" y1="24.906" y2="48.965" gradientUnits="userSpaceOnUse"><stop stop-color="#1a1a1a" offset="0"/><stop stop-color="#1a1a1a" stop-opacity="0" offset="1"/></linearGradient></defs><rect transform="rotate(-90)" x="-47.308" y="28.24" width="42.333" height="52.917" ry=".01055" fill="none" opacity=".5" stroke="#4d4d4d" stroke-linecap="round" stroke-linejoin="round" stroke-width="1.3229"/><path d="m56.407 42.912c-1.9037-0.14949-3.7918 2.9859-6.9523-0.49875-3.9784 2.9347-3.7221-0.3288-5.6258-0.47829s-3.7918 2.9859-6.8337-0.44224c-3.8597 2.9912-3.6035-0.2723-5.5072-0.42179-1.9037-0.14948-3.4693 3.0086-6.5112-0.41952-2.9397-3.5162 0.35729-4.351 0.49148-6.2559s-3.1313-2.1349 0.39872-5.5089c-2.9397-3.5162 0.44082-4.9189 0.57501-6.8238 0.13421-1.9049-3.1313-2.1349 0.36045-5.6346-2.978-3.6419 0.40254-5.0446 0.5367-6.9495 0.13419-1.9049-3.1313-2.1349 0.40027-5.531 3.494-2.99 4.6014 0.35641 6.5073 0.47529s2.1097-3.1483 5.5119 0.35445c3.4925-2.9678 4.9223 0.40128 6.8282 0.52016s2.1097-3.1483 5.6373 0.31513c3.6179-3.0071 5.0477 0.36199 6.9536 0.48085 1.9059 0.11888 2.1097-3.1483 5.6148 0.35559 3.5953-2.9667 5.0252 0.40238 6.931 0.52126 1.9059 0.11888 1.567-2.9674 4.9692 0.5354 3.0221 3.8356-0.24334 3.6055-0.37753 5.5104s3.0163 3.7676-0.44288 6.9561c2.9666 3.9547-0.29889 3.7246-0.43308 5.6295s3.0163 3.7676-0.38732 6.837c3.0221 3.8356-0.24334 3.6055-0.37753 5.5104s3.0998 3.1997-0.3038 6.2691c-3.8597 2.9912-3.515-0.26608-5.4188-0.41556-1.9037-0.14949-3.7918 2.9859-6.9357-0.4556-3.9617 2.9779-3.7054-0.28569-5.6092-0.43518z" fill="#ececec" stroke="#ccc" stroke-linecap="round" stroke-linejoin="round" stroke-width=".52917"/><path transform="matrix(.072452 -1.0285 1.0285 .072452 14.471 56.281)" x="17.197916" y="10.583333" width="33.072914" height="44.979164" ry="0.010542852" d="m19.315 10.583h28.84a2.1167 2.1167 45 0 1 2.1167 2.1167v40.746a2.1167 2.1167 135 0 1-2.1167 2.1167h-28.84a2.1167 2.1167 45 0 1-2.1167-2.1167v-40.746a2.1167 2.1167 135 0 1 2.1167-2.1167z" fill="#ffe580" style="fill:#ff99d3"/><g fill="none" stroke="#f9f9f9" stroke-linecap="round" stroke-linejoin="round" stroke-width="1.0583"><path d="m35.196 38.353c1.515-9.2894 4.4675-13.399 12.05-19.443-6.4809 9.7246-7.3496 13.366-7.7988 19.743"/><circle transform="rotate(4.0295)" cx="61.657" cy="30.45" r="5.1686"/><path d="m48.084 22.173c1.7442 0.23623 3.0385 2.3501 3.8766 5.6131 1.2508-2.5946 1.4655-5.9132-1.4517-9.7143 3.0904-0.93605 4.5084-0.32321 6.3764 0.44918-1.7183-2.8979-4.2182-3.8299-6.6611-3.6733 1.0186-1.5356 0.86443-3.3416-0.1791-5.3527-0.29489 1.679-0.83229 2.7182-2.4249 4.1012-0.9729-1.3501-3.6462-2.8201-7.2894-2.6495 2.4907 1.0299 3.8437 3.0476 3.9515 4.5504-3.4994-1.1845-5.7388-0.40427-7.5889 1.6014 4.2904-0.26005 5.5564 0.97238 6.3015 1.5119"/><path d="m59.99 31.433c2.9786 3.2942 2.06 6.6089 0.26435 8.242-2.1926-1.0226-4.0405-3.9236-2.1556-7.9449"/><path d="m56.214 30.854c1.9556 1.0271 3.5931 0.90197 4.8573-0.57531"/></g><g transform="rotate(30 23.151 42.995)" fill="none" stroke="url(#linearGradient47)" stroke-linecap="round" stroke-linejoin="round" stroke-width="1.0583"><path d="m36.173 47.83a13.891 13.891 0 0 1-13.27 9.0528 13.891 13.891 0 0 1-12.938-9.5218" opacity=".5"/><circle cx="23.151" cy="42.995" r="20.505" opacity=".5"/><path d="m13.904 43.271v-0.508q0-0.8763-0.3048-1.6129-0.2921-0.7366-0.9144-1.1684-0.6223-0.4445-1.5875-0.4445-0.9525 0-1.651 0.4064-0.6985 0.3937-1.0795 1.1303-0.3683 0.7239-0.3683 1.7145 0 0.9779 0.3937 1.7145 0.3937 0.7239 1.1811 1.1176 0.8001 0.3937 1.9939 0.3937 0.5334 0 0.9398-0.1016 0.4191-0.0889 0.7493-0.254 0.3429-0.1778 0.6223-0.4064l-0.4826-1.1938q-0.4064 0.2413-0.8255 0.3937t-0.9652 0.1524q-0.6096 0-0.9906-0.1651t-0.5842-0.4572q-0.2032-0.3048-0.2794-0.7112zm-4.1402-1.1049q0.0762-0.4064 0.254-0.6731t0.4445-0.4064 0.5969-0.1397 0.5842 0.1397q0.2667 0.127 0.4445 0.3937t0.254 0.6858zm6.8072 3.6957v-4.2545q0.2159-0.1524 0.4572-0.3302t0.508-0.2921 0.5588-0.1143q0.2794 0 0.4445 0.1397t0.2413 0.4064q0.0762 0.254 0.0762 0.6604v3.7846h1.651v-4.1148q0-0.7112-0.1905-1.2065-0.1905-0.508-0.6223-0.7747t-1.1684-0.2667q-0.2794 0-0.6604 0.1016-0.381 0.0889-0.7874 0.2921-0.4064 0.1905-0.8001 0.4572l-0.2794-0.6477h-1.0795v6.1595zm3.9243-4.2545q0.2159-0.1524 0.4572-0.3302t0.508-0.2921 0.5588-0.1143q0.2794 0 0.4318 0.1397 0.1651 0.1397 0.2413 0.4064 0.0889 0.254 0.0889 0.6604v3.7846h1.651v-4.1148q0-0.7112-0.1905-1.2065-0.1905-0.508-0.6223-0.7747t-1.1684-0.2667q-0.2921 0-0.6731 0.1016-0.3683 0.0889-0.7747 0.2921-0.4064 0.1905-0.8001 0.4572zm6.5405 2.413q0-0.3302 0.2286-0.5969t0.6604-0.2667h1.2446v0.9398q-0.3175 0.3048-0.6731 0.4572-0.3429 0.1524-0.6858 0.1524-0.2286 0-0.4064-0.0889-0.1651-0.1016-0.2667-0.254-0.1016-0.1651-0.1016-0.3429zm-0.6604-2.5527q0.3429-0.1524 0.8509-0.2794t0.9398-0.127q0.4572 0 0.7112 0.2667 0.2667 0.254 0.2794 0.7112v0.0127h-1.2065q-1.0414 0.0127-1.6891 0.5207-0.6477 0.4953-0.6477 1.4478 0 0.889 0.5461 1.4478 0.5461 0.5461 1.6764 0.5461 0.4572 0 0.8636-0.2286 0.4191-0.2286 0.762-0.5842l0.2794 0.6604h1.0795v-4.0513q0-0.6604-0.3683-1.1684-0.3556-0.5207-0.9652-0.8128t-1.3462-0.2921q-0.254 0-0.6985 0.0762-0.4318 0.0762-0.8509 0.2032-0.4191 0.1143-0.6604 0.2794zm7.4549 4.3942v-6.1595h-1.6637v6.1595zm-0.8382-7.0231q0.381 0 0.6477-0.2667 0.2667-0.2794 0.2667-0.6731t-0.2794-0.6604q-0.2667-0.2667-0.6477-0.2667t-0.6477 0.2667-0.2667 0.6604 0.2667 0.6731q0.2667 0.2667 0.6604 0.2667zm3.9878 7.0231v-8.9662l-1.6383 0.1397v8.8265z" opacity=".5" aria-label="email"/><path transform="scale(-1)" d="m-10.541-37.168a13.891 13.891 0 0 1-11.169 7.9894 13.891 13.891 0 0 1-12.577-5.5136" opacity=".5"/></g></svg>
