<?xml version="1.0" encoding="UTF-8"?>
<svg width="255" height="255" version="1.1" viewBox="0 0 67.469 67.469" xmlns="http://www.w3.org/2000/svg" xmlns:xlink="http://www.w3.org/1999/xlink"><defs><linearGradient id="linearGradient9" x1="34.396" x2="34.396" y1="64.823" y2="2.6458" gradientUnits="userSpaceOnUse"><stop stop-color="#ff0090" offset="0"/><stop stop-color="#fc0" offset="1"/></linearGradient><linearGradient id="linearGradient18" x1="34.396" x2="34.396" y1="64.823" y2="2.6458" gradientUnits="userSpaceOnUse" xlink:href="#linearGradient9"><stop stop-color="#ff6400" offset="0"/><stop stop-color="#fc0" offset="1"/></linearGradient><linearGradient id="linearGradient113" x1="34.396" x2="34.396" y1="64.823" y2="2.6458" gradientUnits="userSpaceOnUse" xlink:href="#linearGradient9"/></defs><g fill="url(#linearGradient113)" stroke-linecap="round" stroke-linejoin="round"><path d="m33.734 2.6458c-17.859-1.2e-6 -31.089 14.552-31.042 30.427h62.114c0.016535-15.875-13.213-30.427-31.072-30.427z"/><path d="m64.814 33.867h-62.158a31.089 31.089 0 0 0 0.22686 3.175h61.705a31.089 31.089 0 0 0 0.22686-3.175z"/><path d="m64.462 38.365h-61.455a31.089 31.089 0 0 0 0.57568 2.6458h60.303a31.089 31.089 0 0 0 0.57568-2.6458z"/><path d="m63.426 42.862h-59.382a31.089 31.089 0 0 0 0.69091 1.8521h58.001a31.089 31.089 0 0 0 0.69091-1.8521z"/><path d="m61.769 47.096h-56.07a31.089 31.089 0 0 0 0.65009 1.1906h54.77a31.089 31.089 0 0 0 0.65009-1.1906z"/><path d="m59.497 51.065h-51.525a31.089 31.089 0 0 0 0.39636 0.52917h50.732a31.089 31.089 0 0 0 0.39636-0.52917z"/><path d="m56.818 54.504h-46.168a31.089 31.089 0 0 0 0.26458 0.26458h45.639a31.089 31.089 0 0 0 0.26458-0.26458z"/></g></svg>
