<?xml version="1.0" encoding="UTF-8"?>
<svg width="255" height="255" version="1.1" viewBox="0 0 67.469 67.469" xmlns="http://www.w3.org/2000/svg" xmlns:xlink="http://www.w3.org/1999/xlink"><defs><pattern id="pattern27" x="-100" patternTransform="matrix(0 -.07 .07 0 205.95 1751.3)" preserveAspectRatio="xMidYMid" xlink:href="#shading27"/><pattern id="shading27" width="565.45114" height="25.387499" fill="#ff0090" patternTransform="translate(205.95 1751.3)" patternUnits="userSpaceOnUse" preserveAspectRatio="xMidYMid"><path transform="matrix(.34644 0 0 .34644 302.15 64.887)" d="m760.01-187.3c0 0.51981-0.42139 0.9412-0.9412 0.9412s-0.9412-0.42139-0.9412-0.9412 0.42139-0.9412 0.9412-0.9412 0.9412 0.42139 0.9412 0.9412zm-38.034 0c0 0.89093-0.72224 1.6132-1.6132 1.6132-0.89093 0-1.6132-0.72225-1.6132-1.6132s0.72225-1.6132 1.6132-1.6132c0.89094 0 1.6132 0.72225 1.6132 1.6132zm-38.034 0c0 1.2621-1.0231 2.2852-2.2852 2.2852-1.2621 0-2.2852-1.0231-2.2852-2.2852s1.0231-2.2852 2.2852-2.2852c1.262 0 2.2852 1.0231 2.2852 2.2852zm-38.034 0c0 1.6332-1.324 2.9571-2.9571 2.9571-1.6332 0-2.9571-1.324-2.9571-2.9571s1.324-2.9571 2.9571-2.9571 2.9571 1.324 2.9571 2.9571zm-38.034 0c0 2.0043-1.6248 3.6291-3.6291 3.6291s-3.6291-1.6248-3.6291-3.6291 1.6248-3.6291 3.6291-3.6291 3.6291 1.6248 3.6291 3.6291zm-38.034 0c0 2.3754-1.9257 4.3011-4.3011 4.3011-2.3754 0-4.3011-1.9257-4.3011-4.3011s1.9257-4.3011 4.3011-4.3011c2.3754 0 4.3011 1.9257 4.3011 4.3011zm-38.034 0c0 2.7466-2.2265 4.9731-4.9731 4.9731-2.7466 0-4.9731-2.2265-4.9731-4.9731 0-2.7466 2.2265-4.9731 4.9731-4.9731 2.7466 0 4.9731 2.2265 4.9731 4.9731zm-38.034 0c0 3.1177-2.5274 5.6451-5.6451 5.6451s-5.6451-2.5274-5.6451-5.6451 2.5274-5.6451 5.6451-5.6451 5.6451 2.5274 5.6451 5.6451zm-38.034 0c0 3.4888-2.8282 6.317-6.317 6.317-3.4888 0-6.317-2.8282-6.317-6.317 0-3.4888 2.8282-6.317 6.317-6.317 3.4888 0 6.317 2.8282 6.317 6.317zm-38.034 0c0 3.8599-3.1291 6.989-6.989 6.989-3.8599 0-6.989-3.1291-6.989-6.989s3.1291-6.989 6.989-6.989c3.8599 0 6.989 3.1291 6.989 6.989zm-38.034 0c0 4.2311-3.43 7.661-7.661 7.661-4.2311 0-7.661-3.4299-7.661-7.661 0-4.231 3.4299-7.661 7.661-7.661 4.231 0 7.661 3.43 7.661 7.661zm-38.034 0c0 4.6022-3.7308 8.333-8.333 8.333s-8.333-3.7308-8.333-8.333 3.7308-8.333 8.333-8.333 8.333 3.7308 8.333 8.333zm-38.034 0c0 4.9733-4.0316 9.005-9.005 9.005-4.9733 0-9.005-4.0316-9.005-9.005 0-4.9733 4.0317-9.005 9.005-9.005s9.005 4.0317 9.005 9.005zm-38.034 0c0 5.3444-4.3325 9.6769-9.6769 9.6769-5.3444 0-9.6769-4.3325-9.6769-9.6769 0-5.3444 4.3325-9.6769 9.6769-9.6769 5.3444 0 9.6769 4.3325 9.6769 9.6769zm-38.034 0c0 5.7156-4.6334 10.349-10.349 10.349s-10.349-4.6334-10.349-10.349 4.6334-10.349 10.349-10.349 10.349 4.6334 10.349 10.349zm-38.034 0c0 6.0867-4.9342 11.021-11.021 11.021s-11.021-4.9342-11.021-11.021c0-6.0867 4.9342-11.021 11.021-11.021s11.021 4.9342 11.021 11.021zm-38.034 0c0 6.4578-5.2351 11.693-11.693 11.693-6.4578 0-11.693-5.2351-11.693-11.693s5.2351-11.693 11.693-11.693c6.4578 0 11.693 5.2351 11.693 11.693zm-38.034 0c0 6.8289-5.5359 12.365-12.365 12.365-6.8289 0-12.365-5.5359-12.365-12.365 0-6.8289 5.5359-12.365 12.365-12.365 6.8289 0 12.365 5.5359 12.365 12.365zm-38.034 0c0 7.2-5.8368 13.037-13.037 13.037-7.2001 0-13.037-5.8368-13.037-13.037-1e-6 -7.2 5.8368-13.037 13.037-13.037 7.2 0 13.037 5.8368 13.037 13.037zm-38.034 0c0 7.5712-6.1376 13.709-13.709 13.709-7.5712 0-13.709-6.1376-13.709-13.709-1e-7 -7.5712 6.1376-13.709 13.709-13.709s13.709 6.1376 13.709 13.709zm-38.034 0c0 7.9423-6.4385 14.381-14.381 14.381s-14.381-6.4385-14.381-14.381c0-7.9423 6.4385-14.381 14.381-14.381s14.381 6.4385 14.381 14.381zm-38.034 0c0 8.3134-6.7394 15.053-15.053 15.053-8.3134 0-15.053-6.7394-15.053-15.053 0-8.3134 6.7394-15.053 15.053-15.053 8.3134 0 15.053 6.7394 15.053 15.053zm-38.034 0c0 8.6846-7.0402 15.725-15.725 15.725-8.6846 0-15.725-7.0402-15.725-15.725 0-8.6845 7.0402-15.725 15.725-15.725 8.6845 0 15.725 7.0402 15.725 15.725zm-38.034 0c0 9.0557-7.3411 16.397-16.397 16.397-9.0557 0-16.397-7.3411-16.397-16.397 0-9.0557 7.3411-16.397 16.397-16.397 9.0557 0 16.397 7.3411 16.397 16.397zm-38.034 0c0 9.4268-7.6419 17.069-17.069 17.069-9.4268 0-17.069-7.6419-17.069-17.069 0-9.4268 7.6419-17.069 17.069-17.069 9.4268 0 17.069 7.6419 17.069 17.069zm-38.034 0c0 9.7979-7.9428 17.741-17.741 17.741s-17.741-7.9428-17.741-17.741c0-9.7979 7.9428-17.741 17.741-17.741 9.7979 0 17.741 7.9428 17.741 17.741zm-38.034 0c0 10.169-8.2436 18.413-18.413 18.413s-18.413-8.2436-18.413-18.413c0-10.169 8.2436-18.413 18.413-18.413s18.413 8.2436 18.413 18.413zm-38.034 0c0 10.54-8.5445 19.085-19.085 19.085-10.54 0-19.085-8.5445-19.085-19.085 0-10.54 8.5445-19.085 19.085-19.085 10.54 0 19.085 8.5445 19.085 19.085zm-38.034 0c0 10.911-8.8454 19.757-19.757 19.757-10.911 0-19.757-8.8454-19.757-19.757 0-10.911 8.8454-19.757 19.757-19.757s19.757 8.8454 19.757 19.757zm-38.034 0c0 11.282-9.1462 20.429-20.429 20.429s-20.429-9.1462-20.429-20.429c0-11.282 9.1462-20.429 20.429-20.429s20.429 9.1462 20.429 20.429zm-38.034 0c0 11.654-9.447 21.101-21.101 21.101-11.654 0-21.101-9.4471-21.101-21.101 0-11.654 9.4471-21.101 21.101-21.101s21.101 9.4471 21.101 21.101zm-38.034 0c0 12.025-9.7479 21.773-21.773 21.773-12.025 0-21.773-9.7479-21.773-21.773 0-12.025 9.7479-21.773 21.773-21.773 12.025 0 21.773 9.7479 21.773 21.773zm-38.034 0c0 12.396-10.049 22.445-22.445 22.445-12.396 0-22.445-10.049-22.445-22.445 0-12.396 10.049-22.445 22.445-22.445 12.396 0 22.445 10.049 22.445 22.445zm-38.034 0c0 12.767-10.35 23.117-23.117 23.117s-23.117-10.35-23.117-23.117c0-12.767 10.35-23.117 23.117-23.117s23.117 10.35 23.117 23.117zm-38.034 0c0 13.138-10.65 23.789-23.789 23.789-13.138 0-23.789-10.65-23.789-23.789 0-13.138 10.65-23.789 23.789-23.789 13.138 0 23.789 10.65 23.789 23.789zm-38.034 0c0 13.509-10.951 24.461-24.46 24.461-13.509 0-24.46-10.951-24.46-24.461 0-13.509 10.951-24.46 24.46-24.46 13.509 0 24.46 10.951 24.46 24.46zm-38.034 0c0 13.88-11.252 25.132-25.132 25.132s-25.132-11.252-25.132-25.132c0-13.88 11.252-25.132 25.132-25.132s25.132 11.252 25.132 25.132zm-38.034 0c0 14.251-11.553 25.804-25.804 25.804-14.251 0-25.804-11.553-25.804-25.804 0-14.251 11.553-25.804 25.804-25.804s25.804 11.553 25.804 25.804zm-38.034 0c0 14.623-11.854 26.476-26.476 26.476-14.623 0-26.476-11.854-26.476-26.476 0-14.623 11.854-26.476 26.476-26.476 14.623 0 26.476 11.854 26.476 26.476zm-38.034 0c0 14.994-12.155 27.148-27.148 27.148-14.994 0-27.148-12.155-27.148-27.148 0-14.994 12.155-27.148 27.148-27.148 14.994 0 27.148 12.155 27.148 27.148zm-38.034 1e-5c0 15.365-12.456 27.82-27.82 27.82s-27.82-12.456-27.82-27.82c0-15.365 12.456-27.82 27.82-27.82s27.82 12.456 27.82 27.82zm1466.2 36.641c0 0.51981-0.42139 0.9412-0.9412 0.9412s-0.9412-0.42139-0.9412-0.9412 0.42139-0.9412 0.9412-0.9412 0.9412 0.42139 0.9412 0.9412zm-38.034 0c0 0.89093-0.72225 1.6132-1.6132 1.6132-0.89094 0-1.6132-0.72225-1.6132-1.6132s0.72224-1.6132 1.6132-1.6132c0.89093 0 1.6132 0.72225 1.6132 1.6132zm-38.034 0c0 1.2621-1.0231 2.2852-2.2852 2.2852s-2.2852-1.0231-2.2852-2.2852 1.0231-2.2852 2.2852-2.2852 2.2852 1.0231 2.2852 2.2852zm-38.034 0c0 1.6332-1.324 2.9571-2.9571 2.9571-1.6332 0-2.9571-1.324-2.9571-2.9571s1.324-2.9571 2.9571-2.9571 2.9571 1.324 2.9571 2.9571zm-38.034 0c0 2.0043-1.6248 3.6291-3.6291 3.6291-2.0043 0-3.6291-1.6248-3.6291-3.6291s1.6248-3.6291 3.6291-3.6291c2.0043 0 3.6291 1.6248 3.6291 3.6291zm-38.034 0c0 2.3754-1.9257 4.3011-4.3011 4.3011s-4.3011-1.9257-4.3011-4.3011 1.9257-4.3011 4.3011-4.3011 4.3011 1.9257 4.3011 4.3011zm-38.034 0c0 2.7466-2.2265 4.9731-4.9731 4.9731s-4.9731-2.2265-4.9731-4.9731c0-2.7466 2.2265-4.9731 4.9731-4.9731s4.9731 2.2265 4.9731 4.9731zm-38.034 0c0 3.1177-2.5274 5.6451-5.6451 5.6451s-5.6451-2.5274-5.6451-5.6451 2.5274-5.6451 5.6451-5.6451 5.6451 2.5274 5.6451 5.6451zm-38.034 0c0 3.4888-2.8282 6.317-6.317 6.317-3.4888 0-6.317-2.8282-6.317-6.317 0-3.4888 2.8282-6.317 6.317-6.317 3.4888 0 6.317 2.8282 6.317 6.317zm-38.034 0c0 3.8599-3.1291 6.989-6.989 6.989s-6.989-3.1291-6.989-6.989 3.1291-6.989 6.989-6.989 6.989 3.1291 6.989 6.989zm-38.034 0c0 4.2311-3.4299 7.661-7.661 7.661-4.231 0-7.661-3.4299-7.661-7.661 0-4.231 3.43-7.661 7.661-7.661s7.661 3.43 7.661 7.661zm-38.034 0c0 4.6022-3.7308 8.333-8.333 8.333s-8.333-3.7308-8.333-8.333 3.7308-8.333 8.333-8.333c4.6022 0 8.333 3.7308 8.333 8.333zm-38.034 0c0 4.9733-4.0317 9.005-9.005 9.005-4.9733 0-9.005-4.0316-9.005-9.005 0-4.9733 4.0317-9.005 9.005-9.005s9.005 4.0317 9.005 9.005zm-38.034 0c0 5.3444-4.3325 9.6769-9.6769 9.6769s-9.6769-4.3325-9.6769-9.6769c0-5.3444 4.3325-9.6769 9.6769-9.6769 5.3444 0 9.6769 4.3325 9.6769 9.6769zm-38.034 0c0 5.7156-4.6334 10.349-10.349 10.349-5.7156 0-10.349-4.6334-10.349-10.349s4.6334-10.349 10.349-10.349 10.349 4.6334 10.349 10.349zm-38.034 0c0 6.0867-4.9342 11.021-11.021 11.021-6.0867 0-11.021-4.9342-11.021-11.021 0-6.0867 4.9342-11.021 11.021-11.021 6.0867 0 11.021 4.9342 11.021 11.021zm-38.034 0c0 6.4578-5.2351 11.693-11.693 11.693s-11.693-5.2351-11.693-11.693 5.2351-11.693 11.693-11.693 11.693 5.2351 11.693 11.693zm-38.034 0c0 6.8289-5.5359 12.365-12.365 12.365-6.8289 0-12.365-5.5359-12.365-12.365 0-6.8289 5.5359-12.365 12.365-12.365 6.8289 0 12.365 5.5359 12.365 12.365zm-38.034 0c0 7.2-5.8368 13.037-13.037 13.037-7.2001 0-13.037-5.8368-13.037-13.037-1e-7 -7.2 5.8368-13.037 13.037-13.037 7.2 0 13.037 5.8368 13.037 13.037zm-38.034 0c0 7.5712-6.1376 13.709-13.709 13.709-7.5712 0-13.709-6.1376-13.709-13.709 0-7.5712 6.1376-13.709 13.709-13.709s13.709 6.1376 13.709 13.709zm-38.034 0c0 7.9423-6.4385 14.381-14.381 14.381s-14.381-6.4385-14.381-14.381c0-7.9423 6.4385-14.381 14.381-14.381s14.381 6.4385 14.381 14.381zm-38.034 0c0 8.3134-6.7394 15.053-15.053 15.053-8.3134 0-15.053-6.7394-15.053-15.053 0-8.3134 6.7394-15.053 15.053-15.053s15.053 6.7394 15.053 15.053zm-38.034 0c0 8.6846-7.0402 15.725-15.725 15.725-8.6845 0-15.725-7.0402-15.725-15.725 0-8.6845 7.0402-15.725 15.725-15.725 8.6846 0 15.725 7.0402 15.725 15.725zm-38.034 0c0 9.0557-7.3411 16.397-16.397 16.397-9.0557 0-16.397-7.3411-16.397-16.397 0-9.0557 7.3411-16.397 16.397-16.397 9.0557 0 16.397 7.3411 16.397 16.397zm-38.034 0c0 9.4268-7.6419 17.069-17.069 17.069s-17.069-7.6419-17.069-17.069c0-9.4268 7.6419-17.069 17.069-17.069s17.069 7.6419 17.069 17.069zm-38.034 0c0 9.7979-7.9428 17.741-17.741 17.741-9.7979 0-17.741-7.9428-17.741-17.741 0-9.7979 7.9428-17.741 17.741-17.741 9.7979 0 17.741 7.9428 17.741 17.741zm-38.034 0c0 10.169-8.2436 18.413-18.413 18.413-10.169 0-18.413-8.2436-18.413-18.413 0-10.169 8.2436-18.413 18.413-18.413 10.169 0 18.413 8.2436 18.413 18.413zm-38.034 0c0 10.54-8.5445 19.085-19.085 19.085s-19.085-8.5445-19.085-19.085c0-10.54 8.5445-19.085 19.085-19.085 10.54 0 19.085 8.5445 19.085 19.085zm-38.034 0c0 10.911-8.8453 19.757-19.757 19.757s-19.757-8.8454-19.757-19.757c0-10.911 8.8454-19.757 19.757-19.757s19.757 8.8454 19.757 19.757zm-38.034 0c0 11.282-9.1462 20.429-20.429 20.429s-20.429-9.1462-20.429-20.429c0-11.282 9.1462-20.429 20.429-20.429 11.282 0 20.429 9.1462 20.429 20.429zm-38.034 0c0 11.654-9.4471 21.101-21.101 21.101-11.654 0-21.101-9.4471-21.101-21.101 0-11.654 9.4471-21.101 21.101-21.101 11.654 0 21.101 9.4471 21.101 21.101zm-38.034 0c0 12.025-9.7479 21.773-21.773 21.773s-21.773-9.7479-21.773-21.773c0-12.025 9.7479-21.773 21.773-21.773s21.773 9.7479 21.773 21.773zm-38.034 0c0 12.396-10.049 22.445-22.445 22.445-12.396 0-22.445-10.049-22.445-22.445 0-12.396 10.049-22.445 22.445-22.445 12.396 0 22.445 10.049 22.445 22.445zm-38.034 0c0 12.767-10.35 23.117-23.117 23.117-12.767 0-23.117-10.35-23.117-23.117 0-12.767 10.35-23.117 23.117-23.117s23.117 10.35 23.117 23.117zm-38.034 0c0 13.138-10.65 23.789-23.789 23.789-13.138 0-23.789-10.65-23.789-23.789 0-13.138 10.65-23.789 23.789-23.789 13.138 0 23.789 10.65 23.789 23.789zm-38.034 0c0 13.509-10.951 24.461-24.46 24.461s-24.46-10.951-24.46-24.461c0-13.509 10.951-24.46 24.46-24.46s24.46 10.951 24.46 24.46zm-38.034 0c0 13.88-11.252 25.132-25.132 25.132s-25.132-11.252-25.132-25.132c0-13.88 11.252-25.132 25.132-25.132 13.88 0 25.132 11.252 25.132 25.132zm-38.034 0c0 14.251-11.553 25.804-25.804 25.804-14.251 0-25.804-11.553-25.804-25.804 0-14.251 11.553-25.804 25.804-25.804 14.251 0 25.804 11.553 25.804 25.804zm-38.034 0c0 14.623-11.854 26.476-26.476 26.476s-26.476-11.854-26.476-26.476c0-14.623 11.854-26.476 26.476-26.476s26.476 11.854 26.476 26.476zm-38.034 0c0 14.994-12.155 27.148-27.148 27.148-14.994 0-27.148-12.155-27.148-27.148 0-14.994 12.155-27.148 27.148-27.148 14.994 0 27.148 12.155 27.148 27.148zm-38.034 1e-5c0 15.365-12.456 27.82-27.82 27.82s-27.82-12.456-27.82-27.82c0-15.365 12.456-27.82 27.82-27.82s27.82 12.456 27.82 27.82zm1576.5 36.641c0 0.51981-0.42139 0.9412-0.9412 0.9412s-0.9412-0.42139-0.9412-0.9412 0.42139-0.9412 0.9412-0.9412 0.9412 0.42139 0.9412 0.9412zm-38.034 0c0 0.89093-0.72224 1.6132-1.6132 1.6132-0.89093 0-1.6132-0.72225-1.6132-1.6132s0.72225-1.6132 1.6132-1.6132c0.89094 0 1.6132 0.72225 1.6132 1.6132zm-38.034 0c0 1.2621-1.0231 2.2852-2.2852 2.2852-1.2621 0-2.2852-1.0231-2.2852-2.2852s1.0231-2.2852 2.2852-2.2852c1.262 0 2.2852 1.0231 2.2852 2.2852zm-38.034 0c0 1.6332-1.324 2.9571-2.9571 2.9571-1.6332 0-2.9571-1.324-2.9571-2.9571s1.324-2.9571 2.9571-2.9571 2.9571 1.324 2.9571 2.9571zm-38.034 0c0 2.0043-1.6248 3.6291-3.6291 3.6291s-3.6291-1.6248-3.6291-3.6291 1.6248-3.6291 3.6291-3.6291 3.6291 1.6248 3.6291 3.6291zm-38.034 0c0 2.3754-1.9257 4.3011-4.3011 4.3011-2.3754 0-4.3011-1.9257-4.3011-4.3011s1.9257-4.3011 4.3011-4.3011c2.3754 0 4.3011 1.9257 4.3011 4.3011zm-38.034 0c0 2.7466-2.2265 4.9731-4.9731 4.9731-2.7466 0-4.9731-2.2265-4.9731-4.9731 0-2.7466 2.2265-4.9731 4.9731-4.9731 2.7466 0 4.9731 2.2265 4.9731 4.9731zm-38.034 0c0 3.1177-2.5274 5.6451-5.6451 5.6451s-5.6451-2.5274-5.6451-5.6451 2.5274-5.6451 5.6451-5.6451 5.6451 2.5274 5.6451 5.6451zm-38.034 0c0 3.4888-2.8282 6.317-6.317 6.317-3.4888 0-6.317-2.8282-6.317-6.317 0-3.4888 2.8282-6.317 6.317-6.317 3.4888 0 6.317 2.8282 6.317 6.317zm-38.034 0c0 3.8599-3.1291 6.989-6.989 6.989-3.8599 0-6.989-3.1291-6.989-6.989s3.1291-6.989 6.989-6.989c3.8599 0 6.989 3.1291 6.989 6.989zm-38.034 0c0 4.2311-3.43 7.661-7.661 7.661-4.2311 0-7.661-3.4299-7.661-7.661 0-4.231 3.4299-7.661 7.661-7.661 4.231 0 7.661 3.43 7.661 7.661zm-38.034 0c0 4.6022-3.7308 8.333-8.333 8.333s-8.333-3.7308-8.333-8.333 3.7308-8.333 8.333-8.333 8.333 3.7308 8.333 8.333zm-38.034 0c0 4.9733-4.0316 9.005-9.005 9.005-4.9733 0-9.005-4.0316-9.005-9.005 0-4.9733 4.0317-9.005 9.005-9.005s9.005 4.0317 9.005 9.005zm-38.034 0c0 5.3444-4.3325 9.6769-9.6769 9.6769-5.3444 0-9.6769-4.3325-9.6769-9.6769 0-5.3444 4.3325-9.6769 9.6769-9.6769 5.3444 0 9.6769 4.3325 9.6769 9.6769zm-38.034 0c0 5.7156-4.6334 10.349-10.349 10.349s-10.349-4.6334-10.349-10.349 4.6334-10.349 10.349-10.349 10.349 4.6334 10.349 10.349zm-38.034 0c0 6.0867-4.9342 11.021-11.021 11.021s-11.021-4.9342-11.021-11.021c0-6.0867 4.9342-11.021 11.021-11.021s11.021 4.9342 11.021 11.021zm-38.034 0c0 6.4578-5.2351 11.693-11.693 11.693-6.4578 0-11.693-5.2351-11.693-11.693s5.2351-11.693 11.693-11.693c6.4578 0 11.693 5.2351 11.693 11.693zm-38.034 0c0 6.8289-5.5359 12.365-12.365 12.365-6.8289 0-12.365-5.5359-12.365-12.365 0-6.8289 5.5359-12.365 12.365-12.365 6.8289 0 12.365 5.5359 12.365 12.365zm-38.034 0c0 7.2-5.8368 13.037-13.037 13.037-7.2001 0-13.037-5.8368-13.037-13.037-1e-6 -7.2 5.8368-13.037 13.037-13.037 7.2 0 13.037 5.8368 13.037 13.037zm-38.034 0c0 7.5712-6.1376 13.709-13.709 13.709-7.5712 0-13.709-6.1376-13.709-13.709-1e-7 -7.5712 6.1376-13.709 13.709-13.709s13.709 6.1376 13.709 13.709zm-38.034 0c0 7.9423-6.4385 14.381-14.381 14.381s-14.381-6.4385-14.381-14.381c0-7.9423 6.4385-14.381 14.381-14.381s14.381 6.4385 14.381 14.381zm-38.034 0c0 8.3134-6.7394 15.053-15.053 15.053-8.3134 0-15.053-6.7394-15.053-15.053 0-8.3134 6.7394-15.053 15.053-15.053 8.3134 0 15.053 6.7394 15.053 15.053zm-38.034 0c0 8.6846-7.0402 15.725-15.725 15.725-8.6846 0-15.725-7.0402-15.725-15.725 0-8.6845 7.0402-15.725 15.725-15.725 8.6845 0 15.725 7.0402 15.725 15.725zm-38.034 0c0 9.0557-7.3411 16.397-16.397 16.397-9.0557 0-16.397-7.3411-16.397-16.397 0-9.0557 7.3411-16.397 16.397-16.397 9.0557 0 16.397 7.3411 16.397 16.397zm-38.034 0c0 9.4268-7.6419 17.069-17.069 17.069-9.4268 0-17.069-7.6419-17.069-17.069 0-9.4268 7.6419-17.069 17.069-17.069 9.4268 0 17.069 7.6419 17.069 17.069zm-38.034 0c0 9.7979-7.9428 17.741-17.741 17.741s-17.741-7.9428-17.741-17.741c0-9.7979 7.9428-17.741 17.741-17.741 9.7979 0 17.741 7.9428 17.741 17.741zm-38.034 0c0 10.169-8.2436 18.413-18.413 18.413s-18.413-8.2436-18.413-18.413c0-10.169 8.2436-18.413 18.413-18.413s18.413 8.2436 18.413 18.413zm-38.034 0c0 10.54-8.5445 19.085-19.085 19.085-10.54 0-19.085-8.5445-19.085-19.085 0-10.54 8.5445-19.085 19.085-19.085 10.54 0 19.085 8.5445 19.085 19.085zm-38.034 0c0 10.911-8.8454 19.757-19.757 19.757-10.911 0-19.757-8.8454-19.757-19.757 0-10.911 8.8454-19.757 19.757-19.757s19.757 8.8454 19.757 19.757zm-38.034 0c0 11.282-9.1462 20.429-20.429 20.429s-20.429-9.1462-20.429-20.429c0-11.282 9.1462-20.429 20.429-20.429s20.429 9.1462 20.429 20.429zm-38.034 0c0 11.654-9.447 21.101-21.101 21.101-11.654 0-21.101-9.4471-21.101-21.101 0-11.654 9.4471-21.101 21.101-21.101s21.101 9.4471 21.101 21.101zm-38.034 0c0 12.025-9.7479 21.773-21.773 21.773-12.025 0-21.773-9.7479-21.773-21.773 0-12.025 9.7479-21.773 21.773-21.773 12.025 0 21.773 9.7479 21.773 21.773zm-38.034 0c0 12.396-10.049 22.445-22.445 22.445-12.396 0-22.445-10.049-22.445-22.445 0-12.396 10.049-22.445 22.445-22.445 12.396 0 22.445 10.049 22.445 22.445zm-38.034 0c0 12.767-10.35 23.117-23.117 23.117s-23.117-10.35-23.117-23.117c0-12.767 10.35-23.117 23.117-23.117s23.117 10.35 23.117 23.117zm-38.034 0c0 13.138-10.65 23.789-23.789 23.789-13.138 0-23.789-10.65-23.789-23.789 0-13.138 10.65-23.789 23.789-23.789 13.138 0 23.789 10.65 23.789 23.789zm-38.034 0c0 13.509-10.951 24.461-24.46 24.461-13.509 0-24.46-10.951-24.46-24.461 0-13.509 10.951-24.46 24.46-24.46 13.509 0 24.46 10.951 24.46 24.46zm-38.034 0c0 13.88-11.252 25.132-25.132 25.132s-25.132-11.252-25.132-25.132c0-13.88 11.252-25.132 25.132-25.132s25.132 11.252 25.132 25.132zm-38.034 0c0 14.251-11.553 25.804-25.804 25.804-14.251 0-25.804-11.553-25.804-25.804 0-14.251 11.553-25.804 25.804-25.804s25.804 11.553 25.804 25.804zm-38.034 0c0 14.623-11.854 26.476-26.476 26.476-14.623 0-26.476-11.854-26.476-26.476 0-14.623 11.854-26.476 26.476-26.476 14.623 0 26.476 11.854 26.476 26.476zm-38.034 0c0 14.994-12.155 27.148-27.148 27.148-14.994 0-27.148-12.155-27.148-27.148 0-14.994 12.155-27.148 27.148-27.148 14.994 0 27.148 12.155 27.148 27.148zm-38.034 1e-5c0 15.365-12.456 27.82-27.82 27.82s-27.82-12.456-27.82-27.82c0-15.365 12.456-27.82 27.82-27.82s27.82 12.456 27.82 27.82z" clip-path="url(#clipPath52)" stop-color="#000000" stroke-linecap="square" stroke-width=".4872" style="paint-order:markers fill stroke"/></pattern><clipPath id="clipPath52"><path d="m-880.83-187.3h1640.8v73.282h-1640.8z" stop-color="#000000" stroke-linecap="square" stroke-width=".1" style="paint-order:markers fill stroke"/></clipPath></defs><g fill="#fc0" stroke-linecap="round" stroke-linejoin="round"><path d="m33.734 2.6458c-17.859-1.2e-6 -31.089 14.552-31.042 30.427h62.114c0.016535-15.875-13.213-30.427-31.072-30.427z"/><path d="m64.814 33.867h-62.158a31.089 31.089 0 0 0 0.22686 3.175h61.705a31.089 31.089 0 0 0 0.22686-3.175z"/><path d="m64.462 38.365h-61.455a31.089 31.089 0 0 0 0.57568 2.6458h60.303a31.089 31.089 0 0 0 0.57568-2.6458z"/><path d="m63.426 42.862h-59.382a31.089 31.089 0 0 0 0.69091 1.8521h58.001a31.089 31.089 0 0 0 0.69091-1.8521z"/><path d="m61.769 47.096h-56.07a31.089 31.089 0 0 0 0.65009 1.1906h54.77a31.089 31.089 0 0 0 0.65009-1.1906z"/><path d="m59.497 51.065h-51.525a31.089 31.089 0 0 0 0.39636 0.52917h50.732a31.089 31.089 0 0 0 0.39636-0.52917z"/><path d="m56.818 54.504h-46.168a31.089 31.089 0 0 0 0.26458 0.26458h45.639a31.089 31.089 0 0 0 0.26458-0.26458z"/></g><g fill="url(#pattern27)" opacity=".7" stroke-linecap="round" stroke-linejoin="round"><path d="m60.154 17.198h-52.831c-0.1071 0.17049-0.21979 0.33758-0.3235 0.51005-0.25185 0.41882-0.49408 0.84343-0.72554 1.2733-0.23146 0.42988-0.45247 0.86522-0.66301 1.3054-0.21054 0.44014-0.41036 0.88522-0.59945 1.3348-0.18909 0.44958-0.36722 0.90346-0.53434 1.3617-0.16712 0.45822-0.32305 0.92043-0.46767 1.3865-0.14462 0.46606-0.27787 0.93614-0.39946 1.4092-0.12159 0.47308-0.23166 0.94956-0.3297 1.4289-0.098035 0.4793-0.18443 0.9612-0.25838 1.4459-0.073951 0.48471-0.13566 0.9721-0.185 1.4614-0.049339 0.48931-0.085872 0.98071-0.11007 1.4738-0.024199 0.4931-0.036092 0.98806-0.034623 1.4842h62.114c5.16e-4 -0.49609-0.01212-0.99105-0.03721-1.4842-0.02509-0.49311-0.063-0.98451-0.11317-1.4738-0.05017-0.48931-0.11234-0.97671-0.18707-1.4614-0.07473-0.48471-0.16169-0.96661-0.26045-1.4459-0.09876-0.4793-0.2095-0.95578-0.33176-1.4289-0.12226-0.47308-0.25628-0.94317-0.40153-1.4092-0.14524-0.46606-0.30153-0.92826-0.46922-1.3865-0.1677-0.45822-0.34678-0.9121-0.5364-1.3617-0.18962-0.44958-0.38998-0.89467-0.601-1.3348-0.21102-0.44014-0.43266-0.87547-0.66456-1.3054-0.2319-0.42988-0.47381-0.85449-0.72606-1.2733-0.10386-0.17245-0.21676-0.33958-0.32401-0.51005z"/><g fill="url(#pattern27)"><path d="m64.814 33.867h-62.158a31.089 31.089 0 0 0 0.22686 3.175h61.705a31.089 31.089 0 0 0 0.22686-3.175z"/><path d="m64.462 38.365h-61.455a31.089 31.089 0 0 0 0.57568 2.6458h60.303a31.089 31.089 0 0 0 0.57568-2.6458z"/><path d="m63.426 42.862h-59.382a31.089 31.089 0 0 0 0.69091 1.8521h58.001a31.089 31.089 0 0 0 0.69091-1.8521z"/><path d="m61.769 47.096h-56.07a31.089 31.089 0 0 0 0.65009 1.1906h54.77a31.089 31.089 0 0 0 0.65009-1.1906z"/><path d="m59.497 51.065h-51.525a31.089 31.089 0 0 0 0.39636 0.52917h50.732a31.089 31.089 0 0 0 0.39636-0.52917z"/><path d="m56.818 54.504h-46.168a31.089 31.089 0 0 0 0.26458 0.26458h45.639a31.089 31.089 0 0 0 0.26458-0.26458z"/></g></g></svg>
